<svg xmlns="http://www.w3.org/2000/svg" width="448" viewBox="0 0 336 171.75" height="229" version="1.0"><defs><clipPath id="a"><path d="M88 20h39v39H88zm0 0"/></clipPath><clipPath id="b"><path d="M78.465 34.633l35.433-22.434 17.63 27.844L96.09 62.477zm0 0"/></clipPath><clipPath id="c"><path d="M78.465 34.633l35.433-22.434 17.63 27.844L96.09 62.477zm0 0"/></clipPath></defs><path d="M147.278 99.508c.196.075.297.235.297.485s-.062.523-.187.812a9.155 9.155 0 00-.266.75 96.947 96.947 0 01-7.39 13.985 52.507 52.507 0 01-10.235 11.797 54.465 54.465 0 01-6.687 4.734 41.816 41.816 0 01-7.547 3.562c-1.711.614-3.266 1.047-4.672 1.297-1.399.25-3.024.36-4.875.328a29.486 29.486 0 01-3.156-.078 18.761 18.761 0 01-3.204-.547c-4.98-1.43-8.683-4.46-11.109-9.093a27.228 27.228 0 01-1.937-4.938 37.252 37.252 0 01-1.032-5c-.562-4.488-.586-8.898-.062-13.234.707-6.031 1.93-11.828 3.672-17.39a98.446 98.446 0 016.61-16.048 73.252 73.252 0 0110.718-15.672 45.423 45.423 0 0110.031-8.437c2.8-1.781 5.914-2.953 9.344-3.516a10.888 10.888 0 014.578.203c2.406.586 3.941 2.07 4.61 4.454.456 1.93.452 4.32-.016 7.171-.461 2.856-1.196 5.836-2.203 8.938-1 3.094-2.11 5.965-3.329 8.61-1.218 2.648-2.335 4.757-3.343 6.327-.305.407-.668.653-1.094.735-.43.086-.902.058-1.422-.078a1.072 1.072 0 01-.656-.438c-.168-.226-.2-.441-.094-.64a4.19 4.19 0 01.39-.938l.235-.547c.375-.894.813-1.883 1.313-2.969a272.643 272.643 0 003.359-7.906 67.008 67.008 0 002.844-8.562c.726-2.844.992-5.422.797-7.735-.356-3.883-2.329-5.332-5.922-4.343-1.594.43-3.074 1-4.438 1.718a35.295 35.295 0 00-3.922 2.422 47.503 47.503 0 00-6.843 6.031 60.326 60.326 0 00-5.641 7.063c-8.438 12.281-13.625 26.2-15.563 41.75-.562 4.5-.546 9.094.047 13.781.332 2.695 1.118 5.348 2.36 7.953 1.258 2.551 2.754 4.504 4.484 5.86 1.727 1.351 3.524 2.242 5.39 2.672 1.864.425 3.618.546 5.266.359 2.883-.336 5.598-1.09 8.141-2.266 5.062-2.312 9.195-4.773 12.406-7.375 3.207-2.605 5.899-5.34 8.078-8.203a101.207 101.207 0 006.125-9 43.839 43.839 0 001.985-3.578c.656-1.363 1.515-2.883 2.578-4.562.351-.532.75-.766 1.187-.704zm0 0" fill="#fff" fill-opacity=".4"/><path d="M161.83 101.4c.22-.228.333.042.345.812.02.773-.68 1.851-2.094 3.234-1.418 1.387-2.883 2.043-4.39 1.969a1.997 1.997 0 00-.845.078c-.23.086-.43.277-.593.578a3.286 3.286 0 01-.578.734l-.047.047c-.93.992-2.016 1.64-3.266 1.953-1.25.313-2.437.22-3.562-.28-1.125-.509-1.934-1.478-2.422-2.907a7.819 7.819 0 01-.094-3.844 11.869 11.869 0 011.234-3.156c.688-1.32 1.582-2.254 2.688-2.797 1.101-.55 2.347-.852 3.734-.906 2.07-.114 3.375.855 3.906 2.906a8.81 8.81 0 01.25 3.594c-.043.273-.093.558-.156.86-.062.198-.117.39-.156.577-.063.656.223.961.86.906 1.726-.3 3.456-1.753 5.187-4.359zm-12.218 7.655c1.063-.488 1.8-1.328 2.219-2.515-1.762-1.125-2.945-2.739-3.547-4.844-.555.98-.89 2.133-1.016 3.453-.117 1.313.016 2.402.391 3.266.383.867 1.035 1.078 1.953.64zm3.031-4.843c.282-.426.446-.942.5-1.547a6.83 6.83 0 00-.093-1.828c-.106-.614-.262-1.094-.47-1.438-.198-.344-.413-.445-.64-.312-.398.355-.62.87-.672 1.546a5.02 5.02 0 00.297 2.032c.25.668.61 1.183 1.078 1.547zm0 0" fill="#fff" fill-opacity=".4"/><path d="M178.551 101.4c.22-.228.332.042.344.812.02.773-.68 1.851-2.094 3.234-1.418 1.387-2.882 2.043-4.39 1.969a1.997 1.997 0 00-.844.078c-.23.086-.43.277-.594.578a3.286 3.286 0 01-.578.734l-.047.047c-.93.992-2.015 1.64-3.265 1.953-1.25.313-2.438.22-3.563-.28-1.125-.509-1.933-1.478-2.422-2.907a7.819 7.819 0 01-.093-3.844 11.869 11.869 0 011.234-3.156c.687-1.32 1.582-2.254 2.687-2.797 1.102-.55 2.348-.852 3.735-.906 2.07-.114 3.375.855 3.906 2.906a8.81 8.81 0 01.25 3.594c-.043.273-.094.558-.156.86-.063.198-.117.39-.156.577-.063.656.222.961.859.906 1.727-.3 3.457-1.753 5.187-4.359zm-12.218 7.655c1.062-.488 1.8-1.328 2.218-2.515-1.761-1.125-2.945-2.739-3.546-4.844-.555.98-.891 2.133-1.016 3.453-.117 1.313.016 2.402.39 3.266.383.867 1.036 1.078 1.954.64zm3.031-4.843c.281-.426.445-.942.5-1.547a6.83 6.83 0 00-.094-1.828c-.105-.614-.262-1.094-.469-1.438-.199-.344-.414-.445-.64-.312-.399.355-.621.87-.672 1.546a5.02 5.02 0 00.297 2.032c.25.668.61 1.183 1.078 1.547zm0 0" fill="#fff" fill-opacity=".4"/><path d="M200.163 102.883c.445-.394.754-.582.922-.562.164.012.222.137.171.375-.043.23-.164.484-.359.766-.492.742-1.121 1.496-1.89 2.265a44.83 44.83 0 01-1.626 1.594c-2.23 2.012-4.234 3.101-6.015 3.266-1.781.156-3.336-.211-4.656-1.11-1.313-.906-2.375-1.941-3.188-3.11-.812-1.175-1.344-2.093-1.594-2.75-.105.2-.172.626-.203 1.282a50.227 50.227 0 00-.047 2.344c-.03.875-.07 1.742-.109 2.594-.031.855-.117 1.554-.25 2.093-.188 1.055-.824 1.512-1.906 1.375-.762-.093-1.196-.492-1.297-1.203a9.77 9.77 0 01-.094-1.36v-2.921c.031-3.945.082-7.883.156-11.813 0-1.894.086-4.898.266-9.015.187-4.125.484-8.485.89-13.078.415-4.594.97-8.551 1.657-11.875.27-1.32.71-2.567 1.328-3.735.625-1.175 1.594-1.93 2.906-2.265.57-.114 1.125-.004 1.656.328.54.324 1.032.98 1.47 1.969.413 1.043.648 2.125.702 3.25.082 2.5-.218 5.664-.906 9.484a181.232 181.232 0 01-2.578 11.89 631.863 631.863 0 01-2.906 11.282c-.524 1.906-.969 3.554-1.344 4.937.406-.718.941-1.53 1.61-2.437.675-.906 1.331-1.63 1.968-2.172 1.477-1.176 3.164-1.586 5.063-1.234 2.113.468 2.757 1.671 1.937 3.609-.887 1.71-1.98 3.016-3.281 3.922-1.305.906-2.559 1.61-3.766 2.11 1.27 1.78 2.711 3.202 4.328 4.265 1.157.656 2.426.762 3.813.312 1.383-.445 2.719-1.14 4-2.078 1.289-.937 2.347-1.8 3.172-2.594zm-16.297-39.359c-.574 3.711-1.086 8.39-1.531 14.047-.438 5.648-.743 10.297-.907 13.953.563-1.488 1.203-3.973 1.922-7.453a276.752 276.752 0 002.031-10.844c.633-3.75 1.079-6.758 1.329-9.031.27-2.5.234-4.125-.11-4.875-.344-.758-.793-.77-1.344-.031-.543.742-1.007 2.152-1.39 4.234zm-1.594 37.719c.133.074.504.012 1.11-.188a19.199 19.199 0 002.015-.843c.738-.364 1.344-.79 1.813-1.282 1.125-1.258 1.628-2.113 1.515-2.562-.117-.457-.523-.625-1.219-.5-.699.125-1.375.476-2.03 1.047a23.936 23.936 0 00-2.157 2.375c-.68.855-1.027 1.507-1.047 1.953zm0 0" fill="#fff" fill-opacity=".4"/><path d="M211.433 104.57c-.46.962-1.246 2.024-2.36 3.188-1.116 1.168-2.382 1.907-3.796 2.22-1.406.312-2.758-.177-4.047-1.47a5.457 5.457 0 01-1.094-1.953 5.646 5.646 0 01-.25-2.187v-.75c0-.758.032-1.64.094-2.64.07-1.009.223-1.915.453-2.72.227-.812.594-1.3 1.094-1.468 1.414-.352 2.187.14 2.312 1.484 0 .438-.015.875-.046 1.313a4.34 4.34 0 00-.047.625l-.094 1.89c0 .492-.024.98-.063 1.469-.03 2.18.454 3.476 1.454 3.89 1.007.407 2.156-.03 3.437-1.312 1.29-1.289 2.133-2.363 2.531-3.219.395-.851.68-1.03.86-.53.175.491.03 1.214-.438 2.17zm-7.89-12.405a1.51 1.51 0 01-.72.328 1.241 1.241 0 01-.718-.078.832.832 0 01-.312-.516 4.105 4.105 0 01-.063-.781c0-.063.008-.125.031-.188.032-.27.098-.535.203-.797.301-.718.926-1.05 1.875-1 .32.055.579.196.766.422.188.22.227.48.125.782a3.792 3.792 0 01-1.187 1.828zm0 0" fill="#fff" fill-opacity=".4"/><path d="M229.375 105.04c1.156-1.832 1.844-2.993 2.062-3.485.22-.488.391-.46.516.078.125.532-.25 1.747-1.125 3.641-.867 1.898-1.945 3.356-3.234 4.375-1.282 1.023-2.48 1.402-3.594 1.14-1.117-.269-1.914-1.046-2.39-2.327-.481-1.282-.622-2.895-.423-4.844 0-.031.016-.113.047-.25.032-.32.082-.805.157-1.453a31.47 31.47 0 00.187-2c.04-.688.02-1.254-.062-1.703-.086-.446-.293-.602-.625-.47-.793.43-1.57 1.278-2.329 2.548a37.58 37.58 0 00-2.046 3.968c-.618 1.387-1.047 2.508-1.297 3.36a13.26 13.26 0 00-.297.86c-.137.386-.29.773-.453 1.155-.43 1.125-1.184 1.563-2.266 1.313-.594-.133-.945-.504-1.047-1.11a19.452 19.452 0 01-.047-1.328 5.37 5.37 0 00-.047-.734 885.98 885.98 0 00-.25-10.031c.032-.395.204-.664.516-.813.313-.144.688-.218 1.125-.218.332 0 .645.09.938.265.289.18.472.555.546 1.125.032.188.047.383.047.578a1.6 1.6 0 01.032.297c.062.461.093.856.093 1.188 0 .492.032.828.094 1.015.07.18.219.168.438-.03.218-.196.57-.661 1.062-1.392a12.548 12.548 0 013.172-3.343c1.156-.82 2.422-1.164 3.797-1.032 1.176.118 1.969.735 2.375 1.86.164.574.25 1.148.25 1.719 0 .574-.04 1.152-.11 1.734a38.41 38.41 0 01-.14 1.844c-.043.199-.078.398-.11.593-.199 2.137-.136 3.57.188 4.297.332.72.836.961 1.516.72.675-.25 1.586-1.286 2.734-3.11zm0 0" fill="#fff" fill-opacity=".4"/><path d="M254.97 102.337c.3-.07.554-.098.765-.079.207.024.32.102.344.235.02.125-.168.324-.563.594a4.69 4.69 0 00-.594.375 71.706 71.706 0 01-2.765 1.89c-1.117.762-2.137 1.461-3.063 2.094-.918.637-1.527 1.121-1.828 1.453a3.51 3.51 0 00-.61 1.516 16.78 16.78 0 00-.171 1.765c-.043.492-.094.985-.156 1.485-.856 5.289-2.297 9.812-4.329 13.562-2.03 3.75-4.32 6.735-6.859 8.953-2.531 2.227-5.004 3.68-7.422 4.36-2.414.687-4.453.597-6.11-.266-1.663-.855-2.648-2.48-2.952-4.875-.157-1.95.246-3.937 1.203-5.969.96-2.03 2.234-3.976 3.828-5.828a49.666 49.666 0 015.062-5.11c1.782-1.542 3.426-2.823 4.938-3.843.414-.305.86-.605 1.328-.906a153.97 153.97 0 016.531-4.281c1.407-.79 2.063-1.942 1.97-3.454v-.703a14.23 14.23 0 01-.063-1.39c-.856 1.343-2.059 2.562-3.61 3.656-1.554 1.094-3.14 1.883-4.765 2.36-1.618.468-3 .445-4.157-.079-1.156-.531-1.754-1.754-1.797-3.672a5.359 5.359 0 01.86-2.718c1.238-2.196 2.969-3.926 5.187-5.188.82-.445 1.817-.77 2.985-.969a8.59 8.59 0 013.375.047c1.082.23 1.953.758 2.61 1.578a1.16 1.16 0 01.718-.53c.32-.083.613-.126.875-.126h.14c1.227-.113 1.805.45 1.735 1.688l-.094 2.671c-.031.657-.07 1.305-.11 1.938.04.742.454.98 1.235.719.79-.258 1.75-.703 2.875-1.328 1.281-.75 2.43-1.29 3.453-1.625zm-14.423 1.234c1.383-1.383 2.145-2.453 2.282-3.203-.336-.602-.852-.969-1.547-1.094a5.642 5.642 0 00-2.125.031c-.719.137-1.324.356-1.813.657-1.367.855-2.367 1.89-3 3.109-.636 1.219-.87 2.262-.703 3.125.164.855.805 1.152 1.922.89 1.113-.269 2.773-1.44 4.984-3.515zm1.875 9.844c0-.051.016-.086.047-.11.04-.195.078-.445.11-.75.03-.3.02-.547-.032-.734-.054-.195-.18-.227-.375-.094-1.375.961-2.82 2.016-4.328 3.172-.906.656-1.758 1.258-2.547 1.813-1.105.82-2.402 1.89-3.89 3.203a50.187 50.187 0 00-4.344 4.422c-1.426 1.632-2.598 3.304-3.516 5.015-.914 1.719-1.375 3.363-1.375 4.938.106 2.25.735 3.597 1.891 4.047 1.148.457 2.594.175 4.344-.844 1.742-1.012 3.547-2.656 5.422-4.938 1.875-2.273 3.586-5.039 5.14-8.297 1.551-3.25 2.703-6.867 3.453-10.843zm0 0" fill="#fff" fill-opacity=".4"/><path d="M145.246 97.476c.195.074.297.234.297.484 0 .25-.063.524-.188.813a9.155 9.155 0 00-.265.75 96.947 96.947 0 01-7.39 13.984 52.507 52.507 0 01-10.235 11.797 54.465 54.465 0 01-6.688 4.735 41.816 41.816 0 01-7.547 3.562c-1.71.613-3.265 1.047-4.672 1.297-1.398.25-3.023.36-4.875.328a29.486 29.486 0 01-3.156-.078 18.761 18.761 0 01-3.203-.547c-4.98-1.43-8.684-4.46-11.11-9.094a27.228 27.228 0 01-1.937-4.937 37.252 37.252 0 01-1.031-5c-.563-4.489-.586-8.899-.063-13.235.707-6.03 1.93-11.828 3.672-17.39a98.446 98.446 0 016.61-16.047 73.252 73.252 0 0110.718-15.672 45.423 45.423 0 0110.032-8.437c2.8-1.782 5.914-2.954 9.343-3.516a10.888 10.888 0 014.579.203c2.406.586 3.941 2.07 4.609 4.453.457 1.93.453 4.32-.016 7.172-.46 2.855-1.195 5.836-2.203 8.938-1 3.093-2.11 5.964-3.328 8.609-1.219 2.648-2.336 4.758-3.344 6.328-.304.406-.668.652-1.093.734-.43.086-.903.059-1.422-.078a1.072 1.072 0 01-.657-.437c-.168-.227-.199-.442-.093-.64.093-.333.222-.645.39-.938l.235-.547c.375-.895.812-1.883 1.312-2.969 1.07-2.406 2.192-5.04 3.36-7.906a67.008 67.008 0 002.843-8.563c.727-2.843.993-5.422.797-7.734-.355-3.883-2.328-5.332-5.922-4.344-1.593.43-3.074 1-4.437 1.719a35.295 35.295 0 00-3.922 2.422 47.503 47.503 0 00-6.844 6.031 60.326 60.326 0 00-5.64 7.063c-8.438 12.28-13.625 26.199-15.563 41.75-.562 4.5-.547 9.093.047 13.78.332 2.696 1.117 5.348 2.36 7.954 1.257 2.55 2.753 4.504 4.484 5.86 1.726 1.35 3.523 2.241 5.39 2.671 1.864.426 3.618.547 5.266.36 2.883-.336 5.598-1.09 8.14-2.266 5.063-2.313 9.196-4.774 12.407-7.375 3.207-2.606 5.898-5.34 8.078-8.203a101.207 101.207 0 006.125-9 43.839 43.839 0 001.984-3.578c.657-1.364 1.516-2.883 2.578-4.563.352-.531.75-.765 1.188-.703zm0 0" fill="#fff"/><path d="M159.798 99.367c.22-.227.332.043.344.812.02.774-.68 1.852-2.094 3.235-1.418 1.386-2.882 2.042-4.39 1.968a1.997 1.997 0 00-.844.078c-.23.086-.43.278-.594.579a3.286 3.286 0 01-.578.734l-.047.047c-.93.992-2.015 1.64-3.265 1.953-1.25.312-2.438.219-3.563-.281-1.125-.508-1.933-1.477-2.422-2.907a7.819 7.819 0 01-.093-3.843 11.869 11.869 0 011.234-3.157c.687-1.32 1.582-2.254 2.687-2.796 1.102-.551 2.348-.852 3.735-.907 2.07-.113 3.375.856 3.906 2.907a8.81 8.81 0 01.25 3.593c-.043.274-.094.559-.156.86-.063.199-.117.39-.156.578-.063.656.222.96.859.906 1.726-.3 3.457-1.754 5.187-4.36zm-12.218 7.656c1.062-.488 1.8-1.328 2.218-2.516-1.761-1.125-2.945-2.738-3.546-4.843-.555.98-.891 2.132-1.016 3.453-.117 1.312.016 2.402.39 3.265.383.867 1.036 1.078 1.954.64zm3.03-4.844c.282-.426.446-.941.5-1.547a6.793 6.793 0 00-.093-1.828c-.105-.613-.262-1.094-.469-1.437-.199-.344-.414-.446-.64-.313-.399.356-.621.871-.672 1.547a5.02 5.02 0 00.297 2.031c.25.668.61 1.184 1.078 1.547zm0 0" fill="#fff"/><path d="M176.519 99.367c.219-.227.332.043.344.812.02.774-.68 1.852-2.094 3.235-1.418 1.386-2.883 2.042-4.39 1.968a1.997 1.997 0 00-.844.078c-.23.086-.43.278-.594.579a3.286 3.286 0 01-.578.734l-.047.047c-.93.992-2.016 1.64-3.266 1.953-1.25.312-2.437.219-3.562-.281-1.125-.508-1.934-1.477-2.422-2.907a7.819 7.819 0 01-.094-3.843 11.869 11.869 0 011.235-3.157c.687-1.32 1.582-2.254 2.687-2.796 1.102-.551 2.348-.852 3.734-.907 2.07-.113 3.375.856 3.907 2.907a8.81 8.81 0 01.25 3.593c-.043.274-.094.559-.157.86-.062.199-.117.39-.156.578-.062.656.223.96.86.906 1.726-.3 3.457-1.754 5.187-4.36zm-12.219 7.656c1.063-.488 1.801-1.328 2.219-2.516-1.762-1.125-2.945-2.738-3.547-4.843-.555.98-.89 2.132-1.015 3.453-.118 1.312.015 2.402.39 3.265.383.867 1.035 1.078 1.953.64zm3.032-4.844c.28-.426.445-.941.5-1.547.05-.613.02-1.222-.094-1.828-.106-.613-.262-1.094-.469-1.437-.2-.344-.414-.446-.64-.313-.399.356-.622.871-.672 1.547a5.02 5.02 0 00.296 2.031c.25.668.61 1.184 1.079 1.547zm0 0" fill="#fff"/><path d="M198.13 100.851c.446-.395.754-.582.922-.562.164.011.223.136.172.375-.043.23-.164.484-.36.765-.492.742-1.12 1.496-1.89 2.266a44.83 44.83 0 01-1.625 1.594c-2.23 2.011-4.234 3.101-6.016 3.265-1.78.156-3.336-.21-4.656-1.11-1.312-.905-2.375-1.94-3.187-3.109-.813-1.175-1.344-2.093-1.594-2.75-.106.2-.172.625-.203 1.282a50.227 50.227 0 00-.047 2.343c-.031.875-.07 1.743-.11 2.594-.03.856-.117 1.555-.25 2.094-.187 1.055-.824 1.512-1.906 1.375-.761-.094-1.195-.492-1.297-1.203a9.77 9.77 0 01-.093-1.36v-2.921c.03-3.946.082-7.883.156-11.813 0-1.895.086-4.898.266-9.016.187-4.125.484-8.484.89-13.078.414-4.593.969-8.55 1.656-11.875.27-1.32.711-2.566 1.329-3.734.625-1.176 1.593-1.93 2.906-2.266.57-.113 1.125-.004 1.656.328.54.325 1.031.98 1.469 1.97.414 1.042.648 2.124.703 3.25.082 2.5-.219 5.663-.906 9.484a181.232 181.232 0 01-2.578 11.89 631.863 631.863 0 01-2.907 11.281c-.523 1.907-.968 3.555-1.343 4.938.406-.719.94-1.531 1.609-2.438.676-.906 1.332-1.629 1.969-2.171 1.476-1.176 3.164-1.586 5.062-1.235 2.113.469 2.758 1.672 1.938 3.61-.887 1.71-1.98 3.015-3.282 3.921-1.304.907-2.558 1.61-3.765 2.11 1.27 1.781 2.71 3.203 4.328 4.265 1.156.657 2.426.762 3.812.313 1.383-.445 2.72-1.14 4-2.078 1.29-.938 2.348-1.801 3.172-2.594zm-16.297-39.36c-.574 3.712-1.086 8.391-1.53 14.048-.438 5.648-.743 10.296-.907 13.953.562-1.489 1.203-3.973 1.922-7.453a276.752 276.752 0 002.031-10.844c.633-3.75 1.078-6.758 1.328-9.031.27-2.5.235-4.125-.11-4.875-.343-.758-.792-.77-1.343-.032-.543.742-1.008 2.153-1.39 4.235zm-1.593 37.72c.132.074.504.011 1.109-.188a19.199 19.199 0 002.016-.844c.738-.363 1.343-.789 1.812-1.281 1.125-1.258 1.63-2.113 1.516-2.563-.117-.457-.524-.625-1.219-.5-.7.125-1.375.477-2.031 1.047a23.936 23.936 0 00-2.156 2.375c-.68.856-1.028 1.508-1.047 1.953zm0 0" fill="#fff"/><path d="M209.4 102.539c-.46.96-1.245 2.023-2.359 3.187-1.117 1.168-2.382 1.906-3.797 2.219-1.406.312-2.757-.176-4.046-1.469a5.457 5.457 0 01-1.094-1.953 5.646 5.646 0 01-.25-2.188v-.75c0-.757.031-1.64.094-2.64.07-1.008.222-1.914.453-2.719.226-.812.593-1.3 1.093-1.469 1.415-.351 2.188.14 2.313 1.485 0 .437-.016.875-.047 1.312-.031.219-.047.43-.047.625l-.094 1.89c0 .493-.023.981-.062 1.47-.031 2.18.453 3.476 1.453 3.89 1.008.406 2.156-.031 3.438-1.312 1.289-1.29 2.132-2.364 2.53-3.22.395-.85.68-1.03.86-.53.176.492.031 1.214-.437 2.172zm-7.89-12.407c-.2.168-.437.278-.719.328a1.241 1.241 0 01-.718-.078.832.832 0 01-.313-.515 4.105 4.105 0 01-.062-.782.53.53 0 01.03-.187c.032-.27.099-.535.204-.797.3-.719.926-1.05 1.875-1 .32.055.578.195.766.422.187.219.226.48.125.781a3.792 3.792 0 01-1.188 1.828zm0 0" fill="#fff"/><path d="M227.343 103.007c1.156-1.832 1.843-2.992 2.062-3.484.219-.488.39-.461.516.078.125.531-.25 1.746-1.125 3.64-.868 1.9-1.946 3.356-3.235 4.376-1.281 1.023-2.48 1.402-3.593 1.14-1.118-.27-1.915-1.047-2.391-2.328-.48-1.281-.621-2.894-.422-4.844 0-.03.016-.113.047-.25.031-.32.082-.804.156-1.453.082-.644.145-1.312.188-2 .039-.687.02-1.254-.063-1.703-.086-.445-.293-.601-.625-.469-.793.43-1.57 1.278-2.328 2.547a37.58 37.58 0 00-2.047 3.969c-.617 1.387-1.047 2.508-1.297 3.36-.105.273-.203.558-.297.859-.136.386-.289.773-.453 1.156-.43 1.125-1.183 1.563-2.265 1.313-.594-.133-.946-.504-1.047-1.11a19.452 19.452 0 01-.047-1.328c0-.258-.016-.504-.047-.734a885.98 885.98 0 00-.25-10.032c.031-.394.203-.664.516-.812.312-.145.687-.219 1.125-.219.332 0 .644.09.937.266.29.18.473.554.547 1.125.031.187.047.383.047.578.02.105.031.203.031.297.063.46.094.855.094 1.187 0 .492.031.828.094 1.016.07.18.218.168.437-.031.219-.196.57-.66 1.063-1.391a12.548 12.548 0 013.172-3.344c1.156-.82 2.421-1.164 3.796-1.031 1.176.117 1.97.734 2.375 1.86.164.574.25 1.148.25 1.718 0 .574-.039 1.152-.109 1.735a38.41 38.41 0 01-.14 1.843c-.044.2-.079.399-.11.594-.2 2.137-.137 3.57.188 4.297.332.719.835.96 1.515.719.676-.25 1.586-1.286 2.735-3.11zm0 0" fill="#fff"/><path d="M252.937 100.304c.3-.07.554-.098.765-.078.207.023.32.102.344.234.02.125-.168.325-.562.594a4.69 4.69 0 00-.594.375 71.706 71.706 0 01-2.766 1.89c-1.117.762-2.136 1.462-3.062 2.095-.918.636-1.528 1.12-1.828 1.453-.325.46-.528.964-.61 1.515a16.79 16.79 0 00-.172 1.766c-.043.492-.093.984-.156 1.484-.855 5.29-2.297 9.813-4.328 13.563s-4.32 6.734-6.86 8.953c-2.53 2.226-5.003 3.68-7.421 4.36-2.414.687-4.453.597-6.11-.266-1.664-.856-2.648-2.48-2.953-4.875-.156-1.95.246-3.938 1.203-5.97.961-2.03 2.235-3.976 3.829-5.827a49.666 49.666 0 015.062-5.11c1.781-1.543 3.426-2.824 4.938-3.843.414-.305.859-.606 1.328-.907a153.97 153.97 0 016.53-4.28c1.407-.79 2.063-1.942 1.97-3.454v-.703a14.23 14.23 0 01-.063-1.39c-.855 1.343-2.058 2.562-3.61 3.656-1.554 1.093-3.14 1.882-4.765 2.359-1.617.469-3 .445-4.156-.078-1.156-.531-1.754-1.754-1.797-3.672a5.359 5.359 0 01.86-2.719c1.238-2.195 2.968-3.926 5.187-5.187.82-.446 1.816-.77 2.984-.97a8.59 8.59 0 013.375.048c1.082.23 1.953.758 2.61 1.578a1.17 1.17 0 01.718-.531c.32-.082.614-.125.875-.125h.141c1.227-.114 1.805.449 1.734 1.687-.03.899-.062 1.79-.093 2.672-.032.656-.07 1.305-.11 1.938.04.742.453.98 1.235.718.789-.258 1.75-.703 2.875-1.328 1.28-.75 2.43-1.289 3.453-1.625zm-14.422 1.235c1.383-1.383 2.144-2.454 2.281-3.204-.336-.601-.851-.968-1.547-1.093a5.642 5.642 0 00-2.125.03c-.718.138-1.324.356-1.812.657-1.367.856-2.367 1.89-3 3.11-.637 1.218-.871 2.261-.703 3.125.164.855.804 1.152 1.922.89 1.113-.27 2.773-1.441 4.984-3.515zm1.875 9.843c0-.05.016-.086.047-.11a8.17 8.17 0 00.11-.75c.03-.3.019-.546-.032-.733-.055-.196-.18-.227-.375-.094-1.375.96-2.82 2.015-4.328 3.172-.906.656-1.758 1.257-2.547 1.812-1.106.82-2.402 1.89-3.89 3.203a50.187 50.187 0 00-4.344 4.422c-1.426 1.633-2.598 3.305-3.516 5.016-.914 1.719-1.375 3.363-1.375 4.937.105 2.25.734 3.598 1.89 4.047 1.149.457 2.594.176 4.344-.844 1.742-1.011 3.547-2.656 5.422-4.937 1.875-2.274 3.586-5.04 5.14-8.297 1.552-3.25 2.704-6.867 3.454-10.844zm0 0" fill="#fff"/><g clip-path="url(#a)"><g clip-path="url(#b)"><g clip-path="url(#c)"><path fill="#fff" d="M109.621 24.137c-.02.015-.043.011-.058-.008-1.04-1.328-2.43-2.387-4.051-2.887-3.36-1.027-7.278.871-8.274 4.348a.055.055 0 01-.047.039l-.867.023c-2.797.082-5.781 1.465-7.086 4.032-1.265 2.48-.672 5.27 1.575 6.988.023.016.019.027-.008.039-2.793 1.148-2.993 3.789-1.008 5.863.02.016.02.04.004.055-2.278 3.504-.86 8.547 3.41 9.601 2.23.555 4.281-.296 5.793-1.968.004-.004.008-.004.008-.008.015-.004.027.004.035.016 1.035 2.835 1.89 5.71 2.473 8.683.003.031.015.031.035.008a32.358 32.358 0 012.41-2.805c4.488-4.582 9.719-8.152 15.695-10.707a37.234 37.234 0 016.535-2.129c.028-.004.028-.015.008-.03-2.512-1.86-4.7-3.849-6.914-6.075-.02-.024-.02-.035.008-.047.394-.176.777-.375 1.148-.598 3.403-2.035 4.137-6.273 2.246-9.582-2.664-4.652-8.707-6.367-13.07-2.851zm11.649 3.644c1.27 2.157 1.261 5.04-.364 7.04-1.785 2.202-4.449 2.413-6.894 3.34a33.839 33.839 0 00-12.215 7.901c-.84.848-1.59 1.735-2.39 2.7-.606.726-1.4 1.422-2.282 1.832a4.836 4.836 0 01-6.21-1.883c-1.04-1.715-.966-3.555-.388-5.418.008-.027.024-.031.047-.016 2.34 1.72 5.489 2.293 8.242 1.278.008 0 .012-.008.012-.016-.004-.004-.008-.012-.016-.008-1.898.074-3.953-.222-5.656-1.101-1.445-.746-2.894-2.106-2.562-3.856.195-1.031.77-1.511 1.574-2.094a.072.072 0 01.062-.007c2.54.84 5.09.277 7.094-1.52.106-.094.094-.121-.043-.078-1.543.496-3.25.754-4.86.574-2.026-.222-4.312-1.469-4.292-3.816a4.267 4.267 0 01.781-2.465c1.528-2.211 4.567-2.969 7.102-2.754 3.218.273 6.117 1.785 8.496 3.941a.024.024 0 00.031 0c.016-.007.02-.023.012-.039-1.715-2.941-4.637-5.039-8.035-5.566-.004 0-.008-.004-.012-.004-.016-.012-.024-.031-.016-.047 1.078-1.875 3.121-2.87 5.258-2.719 4.274.313 7.129 4.317 8.402 7.989 0 .011.012.015.016.011.012.004.02-.007.02-.015a12.582 12.582 0 00-2.125-6.188c-.012-.015-.012-.03.007-.043 3.926-2.523 8.957-.765 11.204 3.047zm0 0"/></g></g></g><path d="M161.61 133.053h-1.515l-2.078-6.844-2.11 6.844h-1.53l-2.922-8.781h1.593l2.141 7.14 2.125-7.125 1.453-.015 2.125 7.14 2.125-7.14h1.531zm11.48-1.984h-4.438l-.828 1.984h-1.547l3.875-8.781h1.515l3.844 8.78h-1.578zm-.563-1.313l-1.656-3.906-1.657 3.906zm11.991-4.156h-2.797v7.453h-1.47V125.6h-2.78v-1.328h7.047zm8.777 5.469h-4.437l-.828 1.984h-1.547l3.875-8.781h1.515l3.844 8.78h-1.578zm-.562-1.313l-1.656-3.906-1.657 3.906zm0 0" fill="#fff" fill-opacity=".4"/><path d="M161.057 132.499h-1.516l-2.078-6.844-2.11 6.844h-1.53l-2.923-8.782h1.594l2.14 7.141 2.126-7.125 1.453-.016 2.125 7.141 2.125-7.14h1.531zm11.478-1.985h-4.438l-.828 1.985h-1.547l3.875-8.782h1.516l3.844 8.782h-1.578zm-.563-1.312l-1.656-3.907-1.656 3.907zm11.991-4.157h-2.797v7.454h-1.468v-7.454h-2.782v-1.328h7.047zm8.777 5.469h-4.437l-.828 1.985h-1.547l3.875-8.782h1.516l3.844 8.782h-1.578zm-.562-1.312l-1.656-3.907-1.656 3.907zm0 0" fill="#fff"/></svg>