<svg width="351" height="298" fill="none" xmlns="http://www.w3.org/2000/svg"><path d="M180.312 219.027c30.75 20.505 57.756 35.828 84.61 47.979l63.265-107.13c7.948-13.469 17.855-30.224 16.834-47.584-.896-15.38-11.094-30.052-25.365-36.495-14.13-6.395-31.646-4.697-44.604 4.329-12.01 8.37-19.109 21.317-26.62 35.026-3.745 6.854-7.63 13.932-12.177 20.385a2.915 2.915 0 01-2.87 1.214 2.943 2.943 0 01-2.338-2.058c-1.495-4.911-2.037-9.286-2.568-13.505a175.138 175.138 0 00-.505-3.88c-.625-4.255-1.735-9.667-4.771-13.781-2.349-3.193-6.682-6.052-11.042-5.276-3.302.599-6.38 3.286-8.244 7.182-1.797 3.76-2.381 8.172-2.87 12.74-2.328 21.833-2.797 44.208-3.255 65.859a2.938 2.938 0 01-.391 1.411c-6.484 11.078-12.224 22.36-17.089 33.584zm85.797 54.661c-.401 0-.802-.083-1.187-.255-28.542-12.719-57.104-28.885-89.901-50.885a2.94 2.94 0 01-1.073-3.584c5.073-11.969 11.125-24.01 17.995-35.823.448-21.521.942-43.771 3.276-65.593.536-5.099 1.208-10.053 3.401-14.646 2.677-5.594 7.343-9.49 12.5-10.417 6.015-1.099 12.625 1.87 16.817 7.557 3.802 5.162 5.115 11.49 5.839 16.412.193 1.333.359 2.661.531 4 .24 1.989.495 4.015.854 6.088 2.87-4.619 5.532-9.474 8.125-14.203 7.5-13.703 15.261-27.87 28.412-37.031 14.625-10.188 34.396-12.083 50.38-4.86 16.203 7.329 27.776 24.011 28.802 41.495 1.12 19.151-9.281 36.766-17.641 50.922l-64.598 109.386a2.947 2.947 0 01-2.532 1.437z" fill="#74472C"/><path d="M279.583 249.517a1.566 1.566 0 01-1.411-.881 854.914 854.914 0 01-6.229-13.078 844.662 844.662 0 01-13.047-29.51 835.595 835.595 0 01-11.63-29.224 797.27 797.27 0 01-10.235-28.74 690.282 690.282 0 01-4.39-13.406 1.563 1.563 0 112.979-.943 753.66 753.66 0 004.375 13.349 802.963 802.963 0 0010.198 28.641 840.542 840.542 0 0011.588 29.115 853.774 853.774 0 0013.005 29.401 805.943 805.943 0 006.198 13.031 1.563 1.563 0 01-1.401 2.245zm22.157-37.516a1.565 1.565 0 01-1.459-1 1452.614 1452.614 0 00-7.916-19.907 1795.5 1795.5 0 00-12.323-29.921c-4-9.495-8.006-18.818-11.933-27.735a1927.294 1927.294 0 00-14.333-31.849 62.97 62.97 0 00-.771-1.687l-.109-.245a1.56 1.56 0 01.771-2.073 1.556 1.556 0 012.073.77l.109.24c.266.568.531 1.136.781 1.704a1999.563 1999.563 0 0126.302 59.651 1845.38 1845.38 0 0112.339 29.968 1460.012 1460.012 0 017.927 19.959 1.57 1.57 0 01-.891 2.026 1.77 1.77 0 01-.567.099zm21.276-36.021c-.61 0-1.188-.359-1.443-.943l-24.245-55.5c-2.75-6.328-5.51-12.645-8.271-18.974l-11.224-25.687a1.564 1.564 0 01.808-2.063 1.548 1.548 0 012.052.808l11.234 25.698c2.76 6.317 5.521 12.646 8.271 18.974l24.245 55.494a1.56 1.56 0 01-.808 2.058 1.572 1.572 0 01-.619.135zm19.666-35.781c-.63 0-1.229-.386-1.458-1.011-.651-1.656-1.281-3.338-1.943-4.989a1043.386 1043.386 0 00-11.812-29.021 1062.397 1062.397 0 00-13.381-30.292l-1.656-3.604a1.524 1.524 0 01-.146-.651c0-.86.704-1.578 1.568-1.578.677 0 1.266.442 1.474 1.047l1.615 3.484a1078.509 1078.509 0 0113.406 30.375c4.088 9.62 8.073 19.411 11.849 29.094a394.683 394.683 0 011.943 5.015 1.557 1.557 0 01-.896 2.021c-.188.073-.38.11-.563.11zm-98.057 121.875a1.574 1.574 0 01-1.474-1.047 2364.285 2364.285 0 00-14.859-41.01 2689.36 2689.36 0 00-10.756-28.412 2289.469 2289.469 0 00-11.297-28.776 2447.746 2447.746 0 00-11.041-27.198 1.568 1.568 0 01.854-2.047 1.567 1.567 0 012.042.855c3.52 8.531 7.135 17.432 11.052 27.229a2209.668 2209.668 0 0111.307 28.823 2599.72 2599.72 0 0110.776 28.432 2419.684 2419.684 0 0110.552 28.891c1.458 4.062 2.901 8.114 4.328 12.177a1.56 1.56 0 01-.958 1.989 1.546 1.546 0 01-.526.094zm-40.396-22.682a1.535 1.535 0 01-1.437-.98 425.422 425.422 0 01-2.136-5.328 9396.961 9396.961 0 01-10.906-27.198l-3.427-8.573a1.61 1.61 0 01-.11-.588 1.56 1.56 0 011.558-1.568c.703 0 1.312.469 1.505 1.11l3.375 8.453c3.63 9.078 7.26 18.14 10.911 27.198a655.692 655.692 0 002.115 5.323 1.547 1.547 0 01-.849 2.031c-.193.083-.396.12-.599.12zm-6.896-111.73a1.561 1.561 0 01-1.422-.916 1.56 1.56 0 01.771-2.073l32.448-14.818a1.554 1.554 0 012.068.771 1.57 1.57 0 01-.766 2.073l-32.448 14.818a1.516 1.516 0 01-.651.145z" fill="#74472C"/><path d="M252.391 103.73c-.86 0-1.568-.698-1.568-1.562 0-.688.443-1.271 1.057-1.485l63.63-28.161c1.105-.485 2.204-.974 3.313-1.448a1.568 1.568 0 012.052.812c.339.802-.026 1.724-.813 2.058a318.95 318.95 0 00-3.286 1.437l-63.76 28.219c-.204.094-.412.13-.625.13zm-57.172 66.016a1.576 1.576 0 01-1.417-.901 1.564 1.564 0 01.745-2.079l12.479-5.927c8.036-3.843 16.094-7.672 24.146-11.5l97.057-46.187a5350.92 5350.92 0 0015.438-7.339 1.564 1.564 0 012.088.735 1.57 1.57 0 01-.745 2.088 3793.91 3793.91 0 01-15.432 7.339l-97.068 46.192c-8.052 3.834-16.104 7.657-24.146 11.5l-12.468 5.933a1.635 1.635 0 01-.677.146zm-14.412 42.588a1.554 1.554 0 01-1.38-.839 1.556 1.556 0 01.651-2.109c3.453-1.833 6.922-3.646 10.396-5.463a2609.871 2609.871 0 0127.812-14.271 2286.157 2286.157 0 0129.761-14.792c10.974-5.365 22-10.656 32.776-15.719a2091.23 2091.23 0 0129.536-13.64c8.683-3.974 18.146-8.209 29.756-13.308l1.385-.614c1.047-.459 2.094-.917 3.135-1.37a1.58 1.58 0 012.058.828 1.568 1.568 0 01-.828 2.052c-1.037.443-2.073.901-3.099 1.36l-1.396.614c-11.589 5.089-21.037 9.318-29.709 13.287a2047.346 2047.346 0 00-29.51 13.63 2258.914 2258.914 0 00-32.729 15.698 2209.649 2209.649 0 00-29.719 14.765 2561.724 2561.724 0 00-27.781 14.25 2284.56 2284.56 0 00-10.38 5.453 1.493 1.493 0 01-.735.188zm17.636 23.49a1.572 1.572 0 01-1.401-.87 1.585 1.585 0 01.703-2.099 131.386 131.386 0 013.708-1.771 3191.384 3191.384 0 0127.646-13.041 2652.246 2652.246 0 0130.604-14.026 2505.78 2505.78 0 0133.49-14.948 2208.57 2208.57 0 0126.51-11.532 1.576 1.576 0 012.052.828 1.561 1.561 0 01-.823 2.053 2132.09 2132.09 0 00-26.474 11.51 2601.66 2601.66 0 00-33.463 14.937 2819.726 2819.726 0 00-30.573 14.021 2843.642 2843.642 0 00-27.641 13.032c-1.229.567-2.427 1.14-3.63 1.744-.229.11-.469.162-.708.162zm31.302 18.39c-.615 0-1.203-.37-1.453-.984a1.578 1.578 0 01.864-2.037 2924.78 2924.78 0 0010.563-4.297c11.026-4.479 22.036-8.953 33.052-13.447 6.104-2.474 12.224-4.959 18.328-7.443a1.547 1.547 0 012.036.849 1.561 1.561 0 01-.854 2.047c-6.104 2.484-12.224 4.979-18.328 7.448-11.016 4.494-22.036 8.968-33.052 13.442-3.521 1.438-7.042 2.88-10.573 4.308a1.532 1.532 0 01-.583.114z" fill="#74472C"/><mask id="a" style="mask-type:luminance" maskUnits="userSpaceOnUse" x="240" y="258" width="25" height="40"><path d="M240.943 258.396h24v39.344h-24v-39.344z" fill="#fff"/></mask><g mask="url(#a)"><path d="M255.557 297.605c-1.359 0-2.781-.281-4.193-.86-4.682-1.906-8.25-6.432-9.536-12.088-1.193-5.219-.349-10.406.531-14.349.339-1.542.735-3.063 1.12-4.594.385-1.479.75-2.953 1.094-4.442a2.915 2.915 0 013.5-2.219 2.925 2.925 0 012.219 3.505c-.339 1.531-.735 3.073-1.12 4.604-.375 1.464-.761 2.943-1.078 4.417-1.11 4.963-1.276 8.594-.542 11.776.854 3.739 3.151 6.786 6.026 7.958 1.302.526 2.583.552 3.354.073 1.448-.885 1.724-3.656 1.807-5.667.256-5.828.027-11.802-.218-16.942a2.94 2.94 0 012.797-3.063c1.619-.104 2.994 1.183 3.067 2.797.25 5.261.479 11.386.224 17.458-.093 2.125-.323 7.787-4.588 10.417-1.308.807-2.839 1.219-4.464 1.219z" fill="#74472C"/></g><path d="M49.51 5.855c-6.27 0-12.51 1.266-18.203 3.838-14.27 6.448-24.469 21.12-25.364 36.5-1.021 17.35 8.885 34.115 16.833 47.584l63.266 107.12c26.854-12.141 53.859-27.464 84.609-47.969-4.865-11.235-10.604-22.516-17.089-33.583a2.951 2.951 0 01-.39-1.422c-.459-21.63-.927-44.016-3.255-65.85-.49-4.567-1.073-8.989-2.87-12.75-1.865-3.885-4.943-6.572-8.245-7.171-4.385-.787-8.703 2.073-11.052 5.276-3.026 4.114-4.135 9.526-4.76 13.781a222.16 222.16 0 00-.511 3.87c-.526 4.23-1.068 8.594-2.562 13.515a2.944 2.944 0 01-2.339 2.058 2.937 2.937 0 01-2.87-1.214c-4.547-6.453-8.427-13.531-12.187-20.385-7.5-13.709-14.589-26.656-26.61-35.031-7.74-5.391-17.114-8.167-26.4-8.167zm35.344 201.724a2.93 2.93 0 01-2.526-1.438L17.724 96.766C9.364 82.61-1.036 64.99.084 45.844 1.108 28.35 12.681 11.678 28.884 4.35 44.87-2.885 64.641-.978 79.265 9.199c13.152 9.172 20.912 23.333 28.412 37.03 2.594 4.74 5.245 9.595 8.125 14.215.359-2.084.615-4.1.859-6.09.167-1.348.334-2.666.526-4 .724-4.92 2.037-11.25 5.839-16.41 4.193-5.698 10.797-8.652 16.818-7.568 5.156.937 9.833 4.833 12.5 10.416 2.192 4.605 2.864 9.558 3.401 14.657 2.338 21.823 2.828 44.073 3.276 65.593 6.87 11.813 12.922 23.855 17.995 35.818a2.948 2.948 0 01-1.073 3.589c-32.797 22-61.36 38.166-89.901 50.885a2.888 2.888 0 01-1.188.245z" fill="#74472C"/><path d="M71.38 183.417c-.229 0-.458-.057-.677-.156a1.574 1.574 0 01-.724-2.099 763.65 763.65 0 006.198-13.021 839.434 839.434 0 0012.995-29.401 802.757 802.757 0 0011.588-29.125 772.204 772.204 0 0010.209-28.63 757.151 757.151 0 004.375-13.36 1.566 1.566 0 011.963-1.02 1.571 1.571 0 011.016 1.974 797.335 797.335 0 01-4.391 13.406 816.442 816.442 0 01-10.234 28.74 823.203 823.203 0 01-11.64 29.224 836.418 836.418 0 01-13.037 29.51 855.868 855.868 0 01-6.23 13.078c-.275.557-.822.88-1.41.88zm-22.156-37.515a1.53 1.53 0 01-.568-.109 1.563 1.563 0 01-.89-2.026 1720.23 1720.23 0 017.927-19.953 1960.952 1960.952 0 0124.291-57.73 1816.382 1816.382 0 0114.37-31.911c.23-.542.495-1.11.76-1.688l.11-.24a1.562 1.562 0 012.083-.76 1.57 1.57 0 01.76 2.073l-.109.245c-.26.552-.515 1.104-.755 1.662A1898.577 1898.577 0 0082.854 67.34a2051.11 2051.11 0 00-11.932 27.724 1917.692 1917.692 0 00-12.323 29.911 1654.7 1654.7 0 00-7.917 19.927c-.245.625-.833 1-1.458 1zm-21.276-36.031a1.56 1.56 0 01-.62-.125 1.569 1.569 0 01-.807-2.068l24.245-55.495a6544.484 6544.484 0 018.557-19.61L70.26 7.512a1.567 1.567 0 012.063-.796 1.548 1.548 0 01.807 2.057L62.182 33.834c-2.843 6.526-5.703 13.068-8.547 19.604l-24.244 55.5a1.57 1.57 0 01-1.443.933zM9.823 72.886l-1.542-.354-1.458-.562c.698-1.813 1.312-3.427 1.943-5.026A1078.22 1078.22 0 0120.614 37.85 1081.634 1081.634 0 0134.032 7.475l1.64-3.557a1.561 1.561 0 013.006.599v.015c0 .219-.042.443-.146.64l-1.656 3.605a1105.054 1105.054 0 00-13.38 30.292c-4.073 9.61-8.042 19.37-11.813 29.026-.635 1.594-1.245 3.187-1.86 4.791zm96.505 123.084a1.565 1.565 0 01-1.474-2.078c1.427-4.063 2.87-8.125 4.328-12.177a2391.12 2391.12 0 0110.552-28.891 2430.587 2430.587 0 0110.776-28.443 2280.307 2280.307 0 0111.308-28.812c3.89-9.735 7.5-18.636 11.052-27.24a1.567 1.567 0 012.896 1.203 2419.618 2419.618 0 00-11.042 27.198c-3.641 9.073-7.328 18.49-11.297 28.776a2563.79 2563.79 0 00-10.755 28.401 2481.026 2481.026 0 00-10.547 28.86 2586.447 2586.447 0 00-4.318 12.161 1.561 1.561 0 01-1.479 1.042zm40.406-22.678c-.203 0-.406-.036-.599-.119a1.555 1.555 0 01-.849-2.037 673.975 673.975 0 002.115-5.307c3.651-9.068 7.281-18.13 10.906-27.208l3.412-8.526a1.562 1.562 0 011.474-1.037c.864 0 1.557.688 1.557 1.557v.011c0 .198-.037.39-.109.583l-3.428 8.578a9513.202 9513.202 0 01-10.906 27.198 431.606 431.606 0 01-2.135 5.328c-.24.615-.823.979-1.438.979zm6.896-111.729c-.219 0-.443-.046-.651-.145l-32.448-14.823a1.564 1.564 0 01-.765-2.068 1.541 1.541 0 012.067-.77l32.448 14.817a1.556 1.556 0 01.771 2.073 1.562 1.562 0 01-1.422.916z" fill="#74472C"/><path d="M155.745 103.646a1.63 1.63 0 01-.677-.145l-12.469-5.938c-8.042-3.838-16.094-7.672-24.146-11.495L21.375 39.876c-5.146-2.438-10.281-4.891-15.422-7.344a1.564 1.564 0 01-.745-2.083 1.578 1.578 0 012.089-.745 6732.734 6732.734 0 0015.427 7.338l97.068 46.198c8.052 3.823 16.109 7.657 24.151 11.5l12.474 5.927a1.562 1.562 0 01.744 2.078 1.572 1.572 0 01-1.416.901zm14.411 42.584c-.25 0-.5-.062-.734-.182a1493.575 1493.575 0 00-10.38-5.453 2627.96 2627.96 0 00-27.782-14.255 2378.715 2378.715 0 00-29.708-14.761 2445.279 2445.279 0 00-32.74-15.708 2242.495 2242.495 0 00-29.5-13.62c-8.848-4.052-18.296-8.27-29.718-13.297l-1.396-.604a206.648 206.648 0 00-3.1-1.36 1.563 1.563 0 01-.827-2.051c.349-.797 1.276-1.167 2.057-.829 1.042.454 2.089.912 3.135 1.37l1.386.615c11.443 5.026 20.896 9.25 29.755 13.302a2187.217 2187.217 0 0129.537 13.64 2248.089 2248.089 0 0132.776 15.724c9.536 4.651 19.541 9.62 29.76 14.782 9.01 4.562 18.365 9.354 27.813 14.27 3.473 1.818 6.942 3.631 10.395 5.464a1.565 1.565 0 01.651 2.12 1.55 1.55 0 01-1.38.833zm-17.635 23.49c-.24 0-.479-.047-.709-.157a96.137 96.137 0 00-3.614-1.734 2836.662 2836.662 0 00-27.656-13.042 2573.544 2573.544 0 00-30.563-14.02 2564.7 2564.7 0 00-33.463-14.938c-9.089-4.016-18-7.885-26.485-11.51a1.56 1.56 0 01-.823-2.052 1.575 1.575 0 012.052-.829c8.5 3.625 17.422 7.506 26.51 11.532a2585.41 2585.41 0 0133.5 14.942 2775.44 2775.44 0 0130.595 14.032 2782.896 2782.896 0 0127.666 13.052c1.219.557 2.448 1.146 3.688 1.76a1.583 1.583 0 01.703 2.099 1.568 1.568 0 01-1.401.865zm-31.302 18.396a1.64 1.64 0 01-.584-.115c-3.531-1.427-7.052-2.87-10.573-4.307-11.015-4.474-22.036-8.959-33.062-13.443-6.094-2.469-12.214-4.963-18.318-7.448a1.563 1.563 0 01-.854-2.047 1.561 1.561 0 012.036-.859c6.1 2.495 12.224 4.979 18.323 7.453 11.021 4.495 22.032 8.969 33.058 13.443 3.521 1.442 7.041 2.88 10.562 4.302a1.574 1.574 0 01.865 2.036c-.25.615-.839.985-1.453.985zm-25.813 43.39c-1.625 0-3.156-.412-4.474-1.229-4.255-2.62-4.484-8.282-4.578-10.417-.266-6.062-.016-12.187.224-17.453.073-1.62 1.484-2.87 3.063-2.797a2.95 2.95 0 012.802 3.068c-.235 5.14-.474 11.109-.22 16.937.084 2.016.36 4.787 1.798 5.672.781.479 2.062.453 3.364-.078 2.875-1.167 5.183-4.214 6.026-7.953.735-3.182.568-6.813-.531-11.776-.338-1.485-.713-2.953-1.088-4.427-.386-1.531-.782-3.063-1.12-4.604a2.935 2.935 0 012.219-3.506c1.593-.343 3.156.651 3.5 2.23.333 1.484.708 2.953 1.083 4.432.396 1.531.781 3.062 1.13 4.604.88 3.932 1.734 9.13.521 14.359-1.276 5.646-4.844 10.167-9.526 12.079-1.406.567-2.833.859-4.193.859z" fill="#74472C"/></svg>