<svg xmlns="http://www.w3.org/2000/svg" xmlns:xlink="http://www.w3.org/1999/xlink" width="448" zoomAndPan="magnify" viewBox="0 0 336 171.750001" height="229" preserveAspectRatio="xMidYMid meet" version="1.0"><defs><g/><clipPath id="82e2f64ec4"><path d="M 88 20 L 127 20 L 127 59 L 88 59 Z M 88 20 " clip-rule="nonzero"/></clipPath><clipPath id="4de45a088b"><path d="M 78.464844 34.632812 L 113.898438 12.199219 L 131.527344 40.042969 L 96.089844 62.476562 Z M 78.464844 34.632812 " clip-rule="nonzero"/></clipPath><clipPath id="d3e8e69467"><path d="M 78.464844 34.632812 L 113.898438 12.199219 L 131.527344 40.042969 L 96.089844 62.476562 Z M 78.464844 34.632812 " clip-rule="nonzero"/></clipPath></defs><g fill="#ffffff" fill-opacity="0.4"><g transform="translate(84.184618, 113.680305)"><g><path d="M 63.09375 -14.171875 C 63.289062 -14.097656 63.390625 -13.9375 63.390625 -13.6875 C 63.390625 -13.4375 63.328125 -13.164062 63.203125 -12.875 C 63.085938 -12.582031 63 -12.332031 62.9375 -12.125 C 60.851562 -7.257812 58.390625 -2.597656 55.546875 1.859375 C 52.703125 6.328125 49.289062 10.257812 45.3125 13.65625 C 43.195312 15.40625 40.96875 16.984375 38.625 18.390625 C 36.28125 19.804688 33.765625 20.992188 31.078125 21.953125 C 29.367188 22.566406 27.8125 23 26.40625 23.25 C 25.007812 23.5 23.382812 23.609375 21.53125 23.578125 C 20.488281 23.609375 19.4375 23.582031 18.375 23.5 C 17.320312 23.414062 16.253906 23.234375 15.171875 22.953125 C 10.191406 21.523438 6.488281 18.492188 4.0625 13.859375 C 3.238281 12.234375 2.59375 10.585938 2.125 8.921875 C 1.664062 7.265625 1.320312 5.597656 1.09375 3.921875 C 0.53125 -0.566406 0.507812 -4.976562 1.03125 -9.3125 C 1.738281 -15.34375 2.960938 -21.140625 4.703125 -26.703125 C 6.441406 -32.265625 8.644531 -37.613281 11.3125 -42.75 C 14.21875 -48.457031 17.789062 -53.679688 22.03125 -58.421875 C 24.957031 -61.710938 28.300781 -64.523438 32.0625 -66.859375 C 34.863281 -68.640625 37.976562 -69.8125 41.40625 -70.375 C 42.914062 -70.632812 44.441406 -70.566406 45.984375 -70.171875 C 48.390625 -69.585938 49.925781 -68.101562 50.59375 -65.71875 C 51.050781 -63.789062 51.046875 -61.398438 50.578125 -58.546875 C 50.117188 -55.691406 49.382812 -52.710938 48.375 -49.609375 C 47.375 -46.515625 46.265625 -43.644531 45.046875 -41 C 43.828125 -38.351562 42.710938 -36.242188 41.703125 -34.671875 C 41.398438 -34.265625 41.035156 -34.019531 40.609375 -33.9375 C 40.179688 -33.851562 39.707031 -33.878906 39.1875 -34.015625 C 38.914062 -34.078125 38.695312 -34.222656 38.53125 -34.453125 C 38.363281 -34.679688 38.332031 -34.894531 38.4375 -35.09375 C 38.53125 -35.425781 38.660156 -35.738281 38.828125 -36.03125 C 38.898438 -36.195312 38.976562 -36.378906 39.0625 -36.578125 C 39.4375 -37.472656 39.875 -38.460938 40.375 -39.546875 C 41.445312 -41.953125 42.566406 -44.585938 43.734375 -47.453125 C 44.898438 -50.316406 45.847656 -53.171875 46.578125 -56.015625 C 47.304688 -58.859375 47.570312 -61.4375 47.375 -63.75 C 47.019531 -67.632812 45.046875 -69.082031 41.453125 -68.09375 C 39.859375 -67.664062 38.378906 -67.09375 37.015625 -66.375 C 35.660156 -65.65625 34.351562 -64.847656 33.09375 -63.953125 C 30.59375 -62.140625 28.3125 -60.128906 26.25 -57.921875 C 24.195312 -55.710938 22.316406 -53.359375 20.609375 -50.859375 C 12.171875 -38.578125 6.984375 -24.660156 5.046875 -9.109375 C 4.484375 -4.609375 4.5 -0.015625 5.09375 4.671875 C 5.425781 7.367188 6.210938 10.019531 7.453125 12.625 C 8.710938 15.175781 10.207031 17.128906 11.9375 18.484375 C 13.664062 19.835938 15.460938 20.726562 17.328125 21.15625 C 19.191406 21.582031 20.945312 21.703125 22.59375 21.515625 C 25.476562 21.179688 28.191406 20.425781 30.734375 19.25 C 35.796875 16.9375 39.929688 14.476562 43.140625 11.875 C 46.347656 9.269531 49.039062 6.535156 51.21875 3.671875 C 53.40625 0.804688 55.445312 -2.191406 57.34375 -5.328125 C 58.101562 -6.566406 58.765625 -7.757812 59.328125 -8.90625 C 59.984375 -10.269531 60.84375 -11.789062 61.90625 -13.46875 C 62.257812 -14 62.65625 -14.234375 63.09375 -14.171875 Z M 63.09375 -14.171875 "/></g></g></g><g fill="#ffffff" fill-opacity="0.4"><g transform="translate(144.580833, 113.680305)"><g><path d="M 17.25 -12.28125 C 17.46875 -12.507812 17.582031 -12.238281 17.59375 -11.46875 C 17.613281 -10.695312 16.914062 -9.617188 15.5 -8.234375 C 14.082031 -6.847656 12.617188 -6.191406 11.109375 -6.265625 C 10.785156 -6.296875 10.503906 -6.269531 10.265625 -6.1875 C 10.035156 -6.101562 9.835938 -5.910156 9.671875 -5.609375 C 9.515625 -5.335938 9.320312 -5.09375 9.09375 -4.875 C 9.09375 -4.875 9.078125 -4.859375 9.046875 -4.828125 C 8.117188 -3.835938 7.03125 -3.1875 5.78125 -2.875 C 4.53125 -2.5625 3.34375 -2.65625 2.21875 -3.15625 C 1.09375 -3.664062 0.285156 -4.632812 -0.203125 -6.0625 C -0.554688 -7.351562 -0.585938 -8.632812 -0.296875 -9.90625 C -0.0351562 -11.019531 0.375 -12.070312 0.9375 -13.0625 C 1.625 -14.382812 2.519531 -15.316406 3.625 -15.859375 C 4.726562 -16.410156 5.972656 -16.710938 7.359375 -16.765625 C 9.429688 -16.878906 10.734375 -15.910156 11.265625 -13.859375 C 11.597656 -12.671875 11.679688 -11.472656 11.515625 -10.265625 C 11.472656 -9.992188 11.421875 -9.707031 11.359375 -9.40625 C 11.296875 -9.207031 11.242188 -9.015625 11.203125 -8.828125 C 11.140625 -8.171875 11.425781 -7.867188 12.0625 -7.921875 C 13.789062 -8.222656 15.519531 -9.675781 17.25 -12.28125 Z M 5.03125 -4.625 C 6.09375 -5.113281 6.832031 -5.953125 7.25 -7.140625 C 5.488281 -8.265625 4.304688 -9.878906 3.703125 -11.984375 C 3.148438 -11.003906 2.8125 -9.851562 2.6875 -8.53125 C 2.570312 -7.21875 2.703125 -6.128906 3.078125 -5.265625 C 3.460938 -4.398438 4.113281 -4.1875 5.03125 -4.625 Z M 8.0625 -9.46875 C 8.34375 -9.894531 8.507812 -10.410156 8.5625 -11.015625 C 8.613281 -11.628906 8.582031 -12.238281 8.46875 -12.84375 C 8.363281 -13.457031 8.207031 -13.9375 8 -14.28125 C 7.800781 -14.625 7.585938 -14.726562 7.359375 -14.59375 C 6.960938 -14.238281 6.738281 -13.722656 6.6875 -13.046875 C 6.644531 -12.367188 6.742188 -11.691406 6.984375 -11.015625 C 7.234375 -10.347656 7.59375 -9.832031 8.0625 -9.46875 Z M 8.0625 -9.46875 "/></g></g></g><g fill="#ffffff" fill-opacity="0.4"><g transform="translate(161.301457, 113.680305)"><g><path d="M 17.25 -12.28125 C 17.46875 -12.507812 17.582031 -12.238281 17.59375 -11.46875 C 17.613281 -10.695312 16.914062 -9.617188 15.5 -8.234375 C 14.082031 -6.847656 12.617188 -6.191406 11.109375 -6.265625 C 10.785156 -6.296875 10.503906 -6.269531 10.265625 -6.1875 C 10.035156 -6.101562 9.835938 -5.910156 9.671875 -5.609375 C 9.515625 -5.335938 9.320312 -5.09375 9.09375 -4.875 C 9.09375 -4.875 9.078125 -4.859375 9.046875 -4.828125 C 8.117188 -3.835938 7.03125 -3.1875 5.78125 -2.875 C 4.53125 -2.5625 3.34375 -2.65625 2.21875 -3.15625 C 1.09375 -3.664062 0.285156 -4.632812 -0.203125 -6.0625 C -0.554688 -7.351562 -0.585938 -8.632812 -0.296875 -9.90625 C -0.0351562 -11.019531 0.375 -12.070312 0.9375 -13.0625 C 1.625 -14.382812 2.519531 -15.316406 3.625 -15.859375 C 4.726562 -16.410156 5.972656 -16.710938 7.359375 -16.765625 C 9.429688 -16.878906 10.734375 -15.910156 11.265625 -13.859375 C 11.597656 -12.671875 11.679688 -11.472656 11.515625 -10.265625 C 11.472656 -9.992188 11.421875 -9.707031 11.359375 -9.40625 C 11.296875 -9.207031 11.242188 -9.015625 11.203125 -8.828125 C 11.140625 -8.171875 11.425781 -7.867188 12.0625 -7.921875 C 13.789062 -8.222656 15.519531 -9.675781 17.25 -12.28125 Z M 5.03125 -4.625 C 6.09375 -5.113281 6.832031 -5.953125 7.25 -7.140625 C 5.488281 -8.265625 4.304688 -9.878906 3.703125 -11.984375 C 3.148438 -11.003906 2.8125 -9.851562 2.6875 -8.53125 C 2.570312 -7.21875 2.703125 -6.128906 3.078125 -5.265625 C 3.460938 -4.398438 4.113281 -4.1875 5.03125 -4.625 Z M 8.0625 -9.46875 C 8.34375 -9.894531 8.507812 -10.410156 8.5625 -11.015625 C 8.613281 -11.628906 8.582031 -12.238281 8.46875 -12.84375 C 8.363281 -13.457031 8.207031 -13.9375 8 -14.28125 C 7.800781 -14.625 7.585938 -14.726562 7.359375 -14.59375 C 6.960938 -14.238281 6.738281 -13.722656 6.6875 -13.046875 C 6.644531 -12.367188 6.742188 -11.691406 6.984375 -11.015625 C 7.234375 -10.347656 7.59375 -9.832031 8.0625 -9.46875 Z M 8.0625 -9.46875 "/></g></g></g><g fill="#ffffff" fill-opacity="0.4"><g transform="translate(178.02208, 113.680305)"><g><path d="M 22.140625 -10.796875 C 22.585938 -11.191406 22.894531 -11.378906 23.0625 -11.359375 C 23.226562 -11.347656 23.285156 -11.222656 23.234375 -10.984375 C 23.191406 -10.753906 23.070312 -10.5 22.875 -10.21875 C 22.382812 -9.476562 21.753906 -8.722656 20.984375 -7.953125 C 20.222656 -7.179688 19.679688 -6.648438 19.359375 -6.359375 C 17.128906 -4.347656 15.125 -3.257812 13.34375 -3.09375 C 11.5625 -2.9375 10.007812 -3.304688 8.6875 -4.203125 C 7.375 -5.109375 6.3125 -6.144531 5.5 -7.3125 C 4.6875 -8.488281 4.15625 -9.40625 3.90625 -10.0625 C 3.800781 -9.863281 3.734375 -9.4375 3.703125 -8.78125 C 3.671875 -8.125 3.65625 -7.34375 3.65625 -6.4375 C 3.625 -5.5625 3.585938 -4.695312 3.546875 -3.84375 C 3.515625 -2.988281 3.429688 -2.289062 3.296875 -1.75 C 3.109375 -0.695312 2.472656 -0.238281 1.390625 -0.375 C 0.628906 -0.46875 0.195312 -0.867188 0.09375 -1.578125 C 0.03125 -2.023438 0 -2.476562 0 -2.9375 C 0 -3.925781 0 -4.898438 0 -5.859375 C 0.03125 -9.804688 0.0820312 -13.742188 0.15625 -17.671875 C 0.15625 -19.566406 0.242188 -22.570312 0.421875 -26.6875 C 0.609375 -30.8125 0.90625 -35.171875 1.3125 -39.765625 C 1.726562 -44.359375 2.28125 -48.316406 2.96875 -51.640625 C 3.238281 -52.960938 3.679688 -54.207031 4.296875 -55.375 C 4.921875 -56.550781 5.890625 -57.304688 7.203125 -57.640625 C 7.773438 -57.753906 8.328125 -57.644531 8.859375 -57.3125 C 9.398438 -56.988281 9.890625 -56.332031 10.328125 -55.34375 C 10.742188 -54.300781 10.976562 -53.21875 11.03125 -52.09375 C 11.113281 -49.59375 10.8125 -46.429688 10.125 -42.609375 C 9.4375 -38.796875 8.578125 -34.832031 7.546875 -30.71875 C 6.523438 -26.601562 5.554688 -22.84375 4.640625 -19.4375 C 4.117188 -17.53125 3.671875 -15.882812 3.296875 -14.5 C 3.703125 -15.21875 4.238281 -16.03125 4.90625 -16.9375 C 5.582031 -17.84375 6.238281 -18.566406 6.875 -19.109375 C 8.351562 -20.285156 10.039062 -20.695312 11.9375 -20.34375 C 14.050781 -19.875 14.695312 -18.671875 13.875 -16.734375 C 12.988281 -15.023438 11.894531 -13.71875 10.59375 -12.8125 C 9.289062 -11.90625 8.035156 -11.203125 6.828125 -10.703125 C 8.097656 -8.921875 9.539062 -7.5 11.15625 -6.4375 C 12.3125 -5.78125 13.582031 -5.675781 14.96875 -6.125 C 16.351562 -6.570312 17.6875 -7.265625 18.96875 -8.203125 C 20.257812 -9.140625 21.316406 -10.003906 22.140625 -10.796875 Z M 5.84375 -50.15625 C 5.269531 -46.445312 4.757812 -41.765625 4.3125 -36.109375 C 3.875 -30.460938 3.570312 -25.8125 3.40625 -22.15625 C 3.96875 -23.644531 4.609375 -26.128906 5.328125 -29.609375 C 6.054688 -33.097656 6.734375 -36.710938 7.359375 -40.453125 C 7.992188 -44.203125 8.4375 -47.210938 8.6875 -49.484375 C 8.957031 -51.984375 8.921875 -53.609375 8.578125 -54.359375 C 8.234375 -55.117188 7.785156 -55.128906 7.234375 -54.390625 C 6.691406 -53.648438 6.226562 -52.238281 5.84375 -50.15625 Z M 4.25 -12.4375 C 4.382812 -12.363281 4.753906 -12.425781 5.359375 -12.625 C 5.960938 -12.832031 6.632812 -13.113281 7.375 -13.46875 C 8.113281 -13.832031 8.71875 -14.257812 9.1875 -14.75 C 10.3125 -16.007812 10.816406 -16.863281 10.703125 -17.3125 C 10.585938 -17.769531 10.179688 -17.9375 9.484375 -17.8125 C 8.785156 -17.6875 8.109375 -17.335938 7.453125 -16.765625 C 6.703125 -16.046875 5.984375 -15.253906 5.296875 -14.390625 C 4.617188 -13.535156 4.269531 -12.882812 4.25 -12.4375 Z M 4.25 -12.4375 "/></g></g></g><g fill="#ffffff" fill-opacity="0.4"><g transform="translate(199.792544, 113.680305)"><g><path d="M 11.640625 -9.109375 C 11.179688 -8.148438 10.394531 -7.085938 9.28125 -5.921875 C 8.164062 -4.753906 6.898438 -4.015625 5.484375 -3.703125 C 4.078125 -3.390625 2.726562 -3.878906 1.4375 -5.171875 C 0.945312 -5.734375 0.582031 -6.382812 0.34375 -7.125 C 0.113281 -7.863281 0.03125 -8.59375 0.09375 -9.3125 C 0.09375 -9.507812 0.09375 -9.757812 0.09375 -10.0625 C 0.09375 -10.820312 0.125 -11.703125 0.1875 -12.703125 C 0.257812 -13.710938 0.410156 -14.617188 0.640625 -15.421875 C 0.867188 -16.234375 1.234375 -16.722656 1.734375 -16.890625 C 3.148438 -17.242188 3.921875 -16.75 4.046875 -15.40625 C 4.046875 -14.96875 4.03125 -14.53125 4 -14.09375 C 3.96875 -13.875 3.953125 -13.664062 3.953125 -13.46875 C 3.921875 -12.84375 3.890625 -12.210938 3.859375 -11.578125 C 3.859375 -11.085938 3.835938 -10.597656 3.796875 -10.109375 C 3.765625 -7.929688 4.25 -6.632812 5.25 -6.21875 C 6.257812 -5.8125 7.40625 -6.25 8.6875 -7.53125 C 9.976562 -8.820312 10.820312 -9.894531 11.21875 -10.75 C 11.613281 -11.601562 11.898438 -11.78125 12.078125 -11.28125 C 12.253906 -10.789062 12.109375 -10.066406 11.640625 -9.109375 Z M 3.75 -21.515625 C 3.550781 -21.347656 3.3125 -21.238281 3.03125 -21.1875 C 2.757812 -21.144531 2.519531 -21.171875 2.3125 -21.265625 C 2.144531 -21.398438 2.039062 -21.570312 2 -21.78125 C 1.957031 -22 1.9375 -22.257812 1.9375 -22.5625 C 1.9375 -22.625 1.945312 -22.6875 1.96875 -22.75 C 2 -23.019531 2.066406 -23.285156 2.171875 -23.546875 C 2.472656 -24.265625 3.097656 -24.597656 4.046875 -24.546875 C 4.367188 -24.492188 4.625 -24.351562 4.8125 -24.125 C 5 -23.90625 5.039062 -23.644531 4.9375 -23.34375 C 4.71875 -22.613281 4.320312 -22.003906 3.75 -21.515625 Z M 3.75 -21.515625 "/></g></g></g><g fill="#ffffff" fill-opacity="0.4"><g transform="translate(210.812448, 113.680305)"><g><path d="M 18.5625 -8.640625 C 19.71875 -10.472656 20.40625 -11.632812 20.625 -12.125 C 20.84375 -12.613281 21.015625 -12.585938 21.140625 -12.046875 C 21.265625 -11.515625 20.890625 -10.300781 20.015625 -8.40625 C 19.148438 -6.507812 18.070312 -5.050781 16.78125 -4.03125 C 15.5 -3.007812 14.300781 -2.628906 13.1875 -2.890625 C 12.070312 -3.160156 11.273438 -3.9375 10.796875 -5.21875 C 10.316406 -6.5 10.175781 -8.113281 10.375 -10.0625 C 10.375 -10.09375 10.390625 -10.175781 10.421875 -10.3125 C 10.453125 -10.632812 10.503906 -11.117188 10.578125 -11.765625 C 10.660156 -12.410156 10.722656 -13.078125 10.765625 -13.765625 C 10.804688 -14.453125 10.785156 -15.019531 10.703125 -15.46875 C 10.617188 -15.914062 10.410156 -16.070312 10.078125 -15.9375 C 9.285156 -15.507812 8.507812 -14.660156 7.75 -13.390625 C 7 -12.128906 6.316406 -10.804688 5.703125 -9.421875 C 5.085938 -8.035156 4.65625 -6.914062 4.40625 -6.0625 C 4.300781 -5.789062 4.203125 -5.503906 4.109375 -5.203125 C 3.972656 -4.816406 3.820312 -4.429688 3.65625 -4.046875 C 3.226562 -2.921875 2.472656 -2.484375 1.390625 -2.734375 C 0.796875 -2.867188 0.445312 -3.238281 0.34375 -3.84375 C 0.3125 -4.300781 0.296875 -4.742188 0.296875 -5.171875 C 0.296875 -5.429688 0.28125 -5.675781 0.25 -5.90625 C 0.1875 -9.226562 0.101562 -12.570312 0 -15.9375 C 0.03125 -16.332031 0.203125 -16.601562 0.515625 -16.75 C 0.828125 -16.894531 1.203125 -16.96875 1.640625 -16.96875 C 1.972656 -16.96875 2.285156 -16.878906 2.578125 -16.703125 C 2.867188 -16.523438 3.050781 -16.148438 3.125 -15.578125 C 3.15625 -15.390625 3.171875 -15.195312 3.171875 -15 C 3.191406 -14.894531 3.203125 -14.796875 3.203125 -14.703125 C 3.265625 -14.242188 3.296875 -13.847656 3.296875 -13.515625 C 3.296875 -13.023438 3.328125 -12.6875 3.390625 -12.5 C 3.460938 -12.320312 3.609375 -12.332031 3.828125 -12.53125 C 4.046875 -12.726562 4.398438 -13.191406 4.890625 -13.921875 C 5.742188 -15.234375 6.800781 -16.347656 8.0625 -17.265625 C 9.21875 -18.085938 10.484375 -18.429688 11.859375 -18.296875 C 13.035156 -18.179688 13.828125 -17.5625 14.234375 -16.4375 C 14.398438 -15.863281 14.484375 -15.289062 14.484375 -14.71875 C 14.484375 -14.144531 14.445312 -13.566406 14.375 -12.984375 C 14.34375 -12.378906 14.296875 -11.765625 14.234375 -11.140625 C 14.191406 -10.941406 14.15625 -10.742188 14.125 -10.546875 C 13.925781 -8.410156 13.988281 -6.976562 14.3125 -6.25 C 14.644531 -5.53125 15.148438 -5.289062 15.828125 -5.53125 C 16.503906 -5.78125 17.414062 -6.816406 18.5625 -8.640625 Z M 18.5625 -8.640625 "/></g></g></g><g fill="#ffffff" fill-opacity="0.4"><g transform="translate(230.562973, 113.680305)"><g><path d="M 24.40625 -11.34375 C 24.707031 -11.414062 24.960938 -11.441406 25.171875 -11.421875 C 25.378906 -11.398438 25.492188 -11.320312 25.515625 -11.1875 C 25.535156 -11.0625 25.347656 -10.863281 24.953125 -10.59375 C 24.785156 -10.507812 24.585938 -10.382812 24.359375 -10.21875 C 23.566406 -9.644531 22.644531 -9.015625 21.59375 -8.328125 C 20.476562 -7.566406 19.457031 -6.867188 18.53125 -6.234375 C 17.613281 -5.597656 17.003906 -5.113281 16.703125 -4.78125 C 16.378906 -4.320312 16.175781 -3.816406 16.09375 -3.265625 C 16.007812 -2.722656 15.953125 -2.132812 15.921875 -1.5 C 15.878906 -1.007812 15.828125 -0.515625 15.765625 -0.015625 C 14.910156 5.273438 13.46875 9.796875 11.4375 13.546875 C 9.40625 17.296875 7.117188 20.28125 4.578125 22.5 C 2.046875 24.726562 -0.425781 26.179688 -2.84375 26.859375 C -5.257812 27.546875 -7.296875 27.457031 -8.953125 26.59375 C -10.617188 25.738281 -11.601562 24.113281 -11.90625 21.71875 C -12.0625 19.769531 -11.660156 17.78125 -10.703125 15.75 C -9.742188 13.71875 -8.46875 11.773438 -6.875 9.921875 C -5.28125 8.066406 -3.59375 6.363281 -1.8125 4.8125 C -0.03125 3.269531 1.613281 1.988281 3.125 0.96875 C 3.539062 0.664062 3.984375 0.363281 4.453125 0.0625 C 6.585938 -1.414062 8.765625 -2.84375 10.984375 -4.21875 C 12.390625 -5.007812 13.046875 -6.160156 12.953125 -7.671875 C 12.953125 -7.835938 12.953125 -8.070312 12.953125 -8.375 C 12.910156 -8.8125 12.890625 -9.273438 12.890625 -9.765625 C 12.035156 -8.421875 10.832031 -7.203125 9.28125 -6.109375 C 7.726562 -5.015625 6.140625 -4.226562 4.515625 -3.75 C 2.898438 -3.28125 1.515625 -3.304688 0.359375 -3.828125 C -0.796875 -4.359375 -1.394531 -5.582031 -1.4375 -7.5 C -1.394531 -8.488281 -1.109375 -9.394531 -0.578125 -10.21875 C 0.660156 -12.414062 2.390625 -14.144531 4.609375 -15.40625 C 5.429688 -15.851562 6.425781 -16.175781 7.59375 -16.375 C 8.757812 -16.582031 9.882812 -16.566406 10.96875 -16.328125 C 12.050781 -16.097656 12.921875 -15.570312 13.578125 -14.75 C 13.742188 -15.019531 13.984375 -15.195312 14.296875 -15.28125 C 14.617188 -15.363281 14.910156 -15.40625 15.171875 -15.40625 C 15.234375 -15.40625 15.28125 -15.40625 15.3125 -15.40625 C 16.539062 -15.519531 17.117188 -14.957031 17.046875 -13.71875 C 17.015625 -12.820312 16.984375 -11.929688 16.953125 -11.046875 C 16.921875 -10.390625 16.882812 -9.742188 16.84375 -9.109375 C 16.882812 -8.367188 17.296875 -8.128906 18.078125 -8.390625 C 18.867188 -8.648438 19.828125 -9.09375 20.953125 -9.71875 C 22.234375 -10.46875 23.382812 -11.007812 24.40625 -11.34375 Z M 9.984375 -10.109375 C 11.367188 -11.492188 12.128906 -12.5625 12.265625 -13.3125 C 11.929688 -13.914062 11.414062 -14.28125 10.71875 -14.40625 C 10.019531 -14.53125 9.3125 -14.519531 8.59375 -14.375 C 7.875 -14.238281 7.269531 -14.019531 6.78125 -13.71875 C 5.414062 -12.863281 4.414062 -11.828125 3.78125 -10.609375 C 3.144531 -9.390625 2.910156 -8.347656 3.078125 -7.484375 C 3.242188 -6.628906 3.882812 -6.332031 5 -6.59375 C 6.113281 -6.863281 7.773438 -8.035156 9.984375 -10.109375 Z M 11.859375 -0.265625 C 11.859375 -0.316406 11.875 -0.351562 11.90625 -0.375 C 11.945312 -0.570312 11.984375 -0.820312 12.015625 -1.125 C 12.046875 -1.425781 12.035156 -1.671875 11.984375 -1.859375 C 11.929688 -2.054688 11.804688 -2.085938 11.609375 -1.953125 C 10.234375 -0.992188 8.789062 0.0625 7.28125 1.21875 C 6.375 1.875 5.523438 2.476562 4.734375 3.03125 C 3.628906 3.851562 2.332031 4.921875 0.84375 6.234375 C -0.632812 7.554688 -2.082031 9.03125 -3.5 10.65625 C -4.925781 12.289062 -6.097656 13.960938 -7.015625 15.671875 C -7.929688 17.390625 -8.390625 19.035156 -8.390625 20.609375 C -8.285156 22.859375 -7.65625 24.207031 -6.5 24.65625 C -5.351562 25.113281 -3.90625 24.832031 -2.15625 23.8125 C -0.414062 22.800781 1.390625 21.15625 3.265625 18.875 C 5.140625 16.601562 6.851562 13.835938 8.40625 10.578125 C 9.957031 7.328125 11.109375 3.710938 11.859375 -0.265625 Z M 11.859375 -0.265625 "/></g></g></g><g fill="#ffffff" fill-opacity="1"><g transform="translate(82.152194, 111.647881)"><g><path d="M 63.09375 -14.171875 C 63.289062 -14.097656 63.390625 -13.9375 63.390625 -13.6875 C 63.390625 -13.4375 63.328125 -13.164062 63.203125 -12.875 C 63.085938 -12.582031 63 -12.332031 62.9375 -12.125 C 60.851562 -7.257812 58.390625 -2.597656 55.546875 1.859375 C 52.703125 6.328125 49.289062 10.257812 45.3125 13.65625 C 43.195312 15.40625 40.96875 16.984375 38.625 18.390625 C 36.28125 19.804688 33.765625 20.992188 31.078125 21.953125 C 29.367188 22.566406 27.8125 23 26.40625 23.25 C 25.007812 23.5 23.382812 23.609375 21.53125 23.578125 C 20.488281 23.609375 19.4375 23.582031 18.375 23.5 C 17.320312 23.414062 16.253906 23.234375 15.171875 22.953125 C 10.191406 21.523438 6.488281 18.492188 4.0625 13.859375 C 3.238281 12.234375 2.59375 10.585938 2.125 8.921875 C 1.664062 7.265625 1.320312 5.597656 1.09375 3.921875 C 0.53125 -0.566406 0.507812 -4.976562 1.03125 -9.3125 C 1.738281 -15.34375 2.960938 -21.140625 4.703125 -26.703125 C 6.441406 -32.265625 8.644531 -37.613281 11.3125 -42.75 C 14.21875 -48.457031 17.789062 -53.679688 22.03125 -58.421875 C 24.957031 -61.710938 28.300781 -64.523438 32.0625 -66.859375 C 34.863281 -68.640625 37.976562 -69.8125 41.40625 -70.375 C 42.914062 -70.632812 44.441406 -70.566406 45.984375 -70.171875 C 48.390625 -69.585938 49.925781 -68.101562 50.59375 -65.71875 C 51.050781 -63.789062 51.046875 -61.398438 50.578125 -58.546875 C 50.117188 -55.691406 49.382812 -52.710938 48.375 -49.609375 C 47.375 -46.515625 46.265625 -43.644531 45.046875 -41 C 43.828125 -38.351562 42.710938 -36.242188 41.703125 -34.671875 C 41.398438 -34.265625 41.035156 -34.019531 40.609375 -33.9375 C 40.179688 -33.851562 39.707031 -33.878906 39.1875 -34.015625 C 38.914062 -34.078125 38.695312 -34.222656 38.53125 -34.453125 C 38.363281 -34.679688 38.332031 -34.894531 38.4375 -35.09375 C 38.53125 -35.425781 38.660156 -35.738281 38.828125 -36.03125 C 38.898438 -36.195312 38.976562 -36.378906 39.0625 -36.578125 C 39.4375 -37.472656 39.875 -38.460938 40.375 -39.546875 C 41.445312 -41.953125 42.566406 -44.585938 43.734375 -47.453125 C 44.898438 -50.316406 45.847656 -53.171875 46.578125 -56.015625 C 47.304688 -58.859375 47.570312 -61.4375 47.375 -63.75 C 47.019531 -67.632812 45.046875 -69.082031 41.453125 -68.09375 C 39.859375 -67.664062 38.378906 -67.09375 37.015625 -66.375 C 35.660156 -65.65625 34.351562 -64.847656 33.09375 -63.953125 C 30.59375 -62.140625 28.3125 -60.128906 26.25 -57.921875 C 24.195312 -55.710938 22.316406 -53.359375 20.609375 -50.859375 C 12.171875 -38.578125 6.984375 -24.660156 5.046875 -9.109375 C 4.484375 -4.609375 4.5 -0.015625 5.09375 4.671875 C 5.425781 7.367188 6.210938 10.019531 7.453125 12.625 C 8.710938 15.175781 10.207031 17.128906 11.9375 18.484375 C 13.664062 19.835938 15.460938 20.726562 17.328125 21.15625 C 19.191406 21.582031 20.945312 21.703125 22.59375 21.515625 C 25.476562 21.179688 28.191406 20.425781 30.734375 19.25 C 35.796875 16.9375 39.929688 14.476562 43.140625 11.875 C 46.347656 9.269531 49.039062 6.535156 51.21875 3.671875 C 53.40625 0.804688 55.445312 -2.191406 57.34375 -5.328125 C 58.101562 -6.566406 58.765625 -7.757812 59.328125 -8.90625 C 59.984375 -10.269531 60.84375 -11.789062 61.90625 -13.46875 C 62.257812 -14 62.65625 -14.234375 63.09375 -14.171875 Z M 63.09375 -14.171875 "/></g></g></g><g fill="#ffffff" fill-opacity="1"><g transform="translate(142.548409, 111.647881)"><g><path d="M 17.25 -12.28125 C 17.46875 -12.507812 17.582031 -12.238281 17.59375 -11.46875 C 17.613281 -10.695312 16.914062 -9.617188 15.5 -8.234375 C 14.082031 -6.847656 12.617188 -6.191406 11.109375 -6.265625 C 10.785156 -6.296875 10.503906 -6.269531 10.265625 -6.1875 C 10.035156 -6.101562 9.835938 -5.910156 9.671875 -5.609375 C 9.515625 -5.335938 9.320312 -5.09375 9.09375 -4.875 C 9.09375 -4.875 9.078125 -4.859375 9.046875 -4.828125 C 8.117188 -3.835938 7.03125 -3.1875 5.78125 -2.875 C 4.53125 -2.5625 3.34375 -2.65625 2.21875 -3.15625 C 1.09375 -3.664062 0.285156 -4.632812 -0.203125 -6.0625 C -0.554688 -7.351562 -0.585938 -8.632812 -0.296875 -9.90625 C -0.0351562 -11.019531 0.375 -12.070312 0.9375 -13.0625 C 1.625 -14.382812 2.519531 -15.316406 3.625 -15.859375 C 4.726562 -16.410156 5.972656 -16.710938 7.359375 -16.765625 C 9.429688 -16.878906 10.734375 -15.910156 11.265625 -13.859375 C 11.597656 -12.671875 11.679688 -11.472656 11.515625 -10.265625 C 11.472656 -9.992188 11.421875 -9.707031 11.359375 -9.40625 C 11.296875 -9.207031 11.242188 -9.015625 11.203125 -8.828125 C 11.140625 -8.171875 11.425781 -7.867188 12.0625 -7.921875 C 13.789062 -8.222656 15.519531 -9.675781 17.25 -12.28125 Z M 5.03125 -4.625 C 6.09375 -5.113281 6.832031 -5.953125 7.25 -7.140625 C 5.488281 -8.265625 4.304688 -9.878906 3.703125 -11.984375 C 3.148438 -11.003906 2.8125 -9.851562 2.6875 -8.53125 C 2.570312 -7.21875 2.703125 -6.128906 3.078125 -5.265625 C 3.460938 -4.398438 4.113281 -4.1875 5.03125 -4.625 Z M 8.0625 -9.46875 C 8.34375 -9.894531 8.507812 -10.410156 8.5625 -11.015625 C 8.613281 -11.628906 8.582031 -12.238281 8.46875 -12.84375 C 8.363281 -13.457031 8.207031 -13.9375 8 -14.28125 C 7.800781 -14.625 7.585938 -14.726562 7.359375 -14.59375 C 6.960938 -14.238281 6.738281 -13.722656 6.6875 -13.046875 C 6.644531 -12.367188 6.742188 -11.691406 6.984375 -11.015625 C 7.234375 -10.347656 7.59375 -9.832031 8.0625 -9.46875 Z M 8.0625 -9.46875 "/></g></g></g><g fill="#ffffff" fill-opacity="1"><g transform="translate(159.269033, 111.647881)"><g><path d="M 17.25 -12.28125 C 17.46875 -12.507812 17.582031 -12.238281 17.59375 -11.46875 C 17.613281 -10.695312 16.914062 -9.617188 15.5 -8.234375 C 14.082031 -6.847656 12.617188 -6.191406 11.109375 -6.265625 C 10.785156 -6.296875 10.503906 -6.269531 10.265625 -6.1875 C 10.035156 -6.101562 9.835938 -5.910156 9.671875 -5.609375 C 9.515625 -5.335938 9.320312 -5.09375 9.09375 -4.875 C 9.09375 -4.875 9.078125 -4.859375 9.046875 -4.828125 C 8.117188 -3.835938 7.03125 -3.1875 5.78125 -2.875 C 4.53125 -2.5625 3.34375 -2.65625 2.21875 -3.15625 C 1.09375 -3.664062 0.285156 -4.632812 -0.203125 -6.0625 C -0.554688 -7.351562 -0.585938 -8.632812 -0.296875 -9.90625 C -0.0351562 -11.019531 0.375 -12.070312 0.9375 -13.0625 C 1.625 -14.382812 2.519531 -15.316406 3.625 -15.859375 C 4.726562 -16.410156 5.972656 -16.710938 7.359375 -16.765625 C 9.429688 -16.878906 10.734375 -15.910156 11.265625 -13.859375 C 11.597656 -12.671875 11.679688 -11.472656 11.515625 -10.265625 C 11.472656 -9.992188 11.421875 -9.707031 11.359375 -9.40625 C 11.296875 -9.207031 11.242188 -9.015625 11.203125 -8.828125 C 11.140625 -8.171875 11.425781 -7.867188 12.0625 -7.921875 C 13.789062 -8.222656 15.519531 -9.675781 17.25 -12.28125 Z M 5.03125 -4.625 C 6.09375 -5.113281 6.832031 -5.953125 7.25 -7.140625 C 5.488281 -8.265625 4.304688 -9.878906 3.703125 -11.984375 C 3.148438 -11.003906 2.8125 -9.851562 2.6875 -8.53125 C 2.570312 -7.21875 2.703125 -6.128906 3.078125 -5.265625 C 3.460938 -4.398438 4.113281 -4.1875 5.03125 -4.625 Z M 8.0625 -9.46875 C 8.34375 -9.894531 8.507812 -10.410156 8.5625 -11.015625 C 8.613281 -11.628906 8.582031 -12.238281 8.46875 -12.84375 C 8.363281 -13.457031 8.207031 -13.9375 8 -14.28125 C 7.800781 -14.625 7.585938 -14.726562 7.359375 -14.59375 C 6.960938 -14.238281 6.738281 -13.722656 6.6875 -13.046875 C 6.644531 -12.367188 6.742188 -11.691406 6.984375 -11.015625 C 7.234375 -10.347656 7.59375 -9.832031 8.0625 -9.46875 Z M 8.0625 -9.46875 "/></g></g></g><g fill="#ffffff" fill-opacity="1"><g transform="translate(175.989656, 111.647881)"><g><path d="M 22.140625 -10.796875 C 22.585938 -11.191406 22.894531 -11.378906 23.0625 -11.359375 C 23.226562 -11.347656 23.285156 -11.222656 23.234375 -10.984375 C 23.191406 -10.753906 23.070312 -10.5 22.875 -10.21875 C 22.382812 -9.476562 21.753906 -8.722656 20.984375 -7.953125 C 20.222656 -7.179688 19.679688 -6.648438 19.359375 -6.359375 C 17.128906 -4.347656 15.125 -3.257812 13.34375 -3.09375 C 11.5625 -2.9375 10.007812 -3.304688 8.6875 -4.203125 C 7.375 -5.109375 6.3125 -6.144531 5.5 -7.3125 C 4.6875 -8.488281 4.15625 -9.40625 3.90625 -10.0625 C 3.800781 -9.863281 3.734375 -9.4375 3.703125 -8.78125 C 3.671875 -8.125 3.65625 -7.34375 3.65625 -6.4375 C 3.625 -5.5625 3.585938 -4.695312 3.546875 -3.84375 C 3.515625 -2.988281 3.429688 -2.289062 3.296875 -1.75 C 3.109375 -0.695312 2.472656 -0.238281 1.390625 -0.375 C 0.628906 -0.46875 0.195312 -0.867188 0.09375 -1.578125 C 0.03125 -2.023438 0 -2.476562 0 -2.9375 C 0 -3.925781 0 -4.898438 0 -5.859375 C 0.03125 -9.804688 0.0820312 -13.742188 0.15625 -17.671875 C 0.15625 -19.566406 0.242188 -22.570312 0.421875 -26.6875 C 0.609375 -30.8125 0.90625 -35.171875 1.3125 -39.765625 C 1.726562 -44.359375 2.28125 -48.316406 2.96875 -51.640625 C 3.238281 -52.960938 3.679688 -54.207031 4.296875 -55.375 C 4.921875 -56.550781 5.890625 -57.304688 7.203125 -57.640625 C 7.773438 -57.753906 8.328125 -57.644531 8.859375 -57.3125 C 9.398438 -56.988281 9.890625 -56.332031 10.328125 -55.34375 C 10.742188 -54.300781 10.976562 -53.21875 11.03125 -52.09375 C 11.113281 -49.59375 10.8125 -46.429688 10.125 -42.609375 C 9.4375 -38.796875 8.578125 -34.832031 7.546875 -30.71875 C 6.523438 -26.601562 5.554688 -22.84375 4.640625 -19.4375 C 4.117188 -17.53125 3.671875 -15.882812 3.296875 -14.5 C 3.703125 -15.21875 4.238281 -16.03125 4.90625 -16.9375 C 5.582031 -17.84375 6.238281 -18.566406 6.875 -19.109375 C 8.351562 -20.285156 10.039062 -20.695312 11.9375 -20.34375 C 14.050781 -19.875 14.695312 -18.671875 13.875 -16.734375 C 12.988281 -15.023438 11.894531 -13.71875 10.59375 -12.8125 C 9.289062 -11.90625 8.035156 -11.203125 6.828125 -10.703125 C 8.097656 -8.921875 9.539062 -7.5 11.15625 -6.4375 C 12.3125 -5.78125 13.582031 -5.675781 14.96875 -6.125 C 16.351562 -6.570312 17.6875 -7.265625 18.96875 -8.203125 C 20.257812 -9.140625 21.316406 -10.003906 22.140625 -10.796875 Z M 5.84375 -50.15625 C 5.269531 -46.445312 4.757812 -41.765625 4.3125 -36.109375 C 3.875 -30.460938 3.570312 -25.8125 3.40625 -22.15625 C 3.96875 -23.644531 4.609375 -26.128906 5.328125 -29.609375 C 6.054688 -33.097656 6.734375 -36.710938 7.359375 -40.453125 C 7.992188 -44.203125 8.4375 -47.210938 8.6875 -49.484375 C 8.957031 -51.984375 8.921875 -53.609375 8.578125 -54.359375 C 8.234375 -55.117188 7.785156 -55.128906 7.234375 -54.390625 C 6.691406 -53.648438 6.226562 -52.238281 5.84375 -50.15625 Z M 4.25 -12.4375 C 4.382812 -12.363281 4.753906 -12.425781 5.359375 -12.625 C 5.960938 -12.832031 6.632812 -13.113281 7.375 -13.46875 C 8.113281 -13.832031 8.71875 -14.257812 9.1875 -14.75 C 10.3125 -16.007812 10.816406 -16.863281 10.703125 -17.3125 C 10.585938 -17.769531 10.179688 -17.9375 9.484375 -17.8125 C 8.785156 -17.6875 8.109375 -17.335938 7.453125 -16.765625 C 6.703125 -16.046875 5.984375 -15.253906 5.296875 -14.390625 C 4.617188 -13.535156 4.269531 -12.882812 4.25 -12.4375 Z M 4.25 -12.4375 "/></g></g></g><g fill="#ffffff" fill-opacity="1"><g transform="translate(197.76012, 111.647881)"><g><path d="M 11.640625 -9.109375 C 11.179688 -8.148438 10.394531 -7.085938 9.28125 -5.921875 C 8.164062 -4.753906 6.898438 -4.015625 5.484375 -3.703125 C 4.078125 -3.390625 2.726562 -3.878906 1.4375 -5.171875 C 0.945312 -5.734375 0.582031 -6.382812 0.34375 -7.125 C 0.113281 -7.863281 0.03125 -8.59375 0.09375 -9.3125 C 0.09375 -9.507812 0.09375 -9.757812 0.09375 -10.0625 C 0.09375 -10.820312 0.125 -11.703125 0.1875 -12.703125 C 0.257812 -13.710938 0.410156 -14.617188 0.640625 -15.421875 C 0.867188 -16.234375 1.234375 -16.722656 1.734375 -16.890625 C 3.148438 -17.242188 3.921875 -16.75 4.046875 -15.40625 C 4.046875 -14.96875 4.03125 -14.53125 4 -14.09375 C 3.96875 -13.875 3.953125 -13.664062 3.953125 -13.46875 C 3.921875 -12.84375 3.890625 -12.210938 3.859375 -11.578125 C 3.859375 -11.085938 3.835938 -10.597656 3.796875 -10.109375 C 3.765625 -7.929688 4.25 -6.632812 5.25 -6.21875 C 6.257812 -5.8125 7.40625 -6.25 8.6875 -7.53125 C 9.976562 -8.820312 10.820312 -9.894531 11.21875 -10.75 C 11.613281 -11.601562 11.898438 -11.78125 12.078125 -11.28125 C 12.253906 -10.789062 12.109375 -10.066406 11.640625 -9.109375 Z M 3.75 -21.515625 C 3.550781 -21.347656 3.3125 -21.238281 3.03125 -21.1875 C 2.757812 -21.144531 2.519531 -21.171875 2.3125 -21.265625 C 2.144531 -21.398438 2.039062 -21.570312 2 -21.78125 C 1.957031 -22 1.9375 -22.257812 1.9375 -22.5625 C 1.9375 -22.625 1.945312 -22.6875 1.96875 -22.75 C 2 -23.019531 2.066406 -23.285156 2.171875 -23.546875 C 2.472656 -24.265625 3.097656 -24.597656 4.046875 -24.546875 C 4.367188 -24.492188 4.625 -24.351562 4.8125 -24.125 C 5 -23.90625 5.039062 -23.644531 4.9375 -23.34375 C 4.71875 -22.613281 4.320312 -22.003906 3.75 -21.515625 Z M 3.75 -21.515625 "/></g></g></g><g fill="#ffffff" fill-opacity="1"><g transform="translate(208.780024, 111.647881)"><g><path d="M 18.5625 -8.640625 C 19.71875 -10.472656 20.40625 -11.632812 20.625 -12.125 C 20.84375 -12.613281 21.015625 -12.585938 21.140625 -12.046875 C 21.265625 -11.515625 20.890625 -10.300781 20.015625 -8.40625 C 19.148438 -6.507812 18.070312 -5.050781 16.78125 -4.03125 C 15.5 -3.007812 14.300781 -2.628906 13.1875 -2.890625 C 12.070312 -3.160156 11.273438 -3.9375 10.796875 -5.21875 C 10.316406 -6.5 10.175781 -8.113281 10.375 -10.0625 C 10.375 -10.09375 10.390625 -10.175781 10.421875 -10.3125 C 10.453125 -10.632812 10.503906 -11.117188 10.578125 -11.765625 C 10.660156 -12.410156 10.722656 -13.078125 10.765625 -13.765625 C 10.804688 -14.453125 10.785156 -15.019531 10.703125 -15.46875 C 10.617188 -15.914062 10.410156 -16.070312 10.078125 -15.9375 C 9.285156 -15.507812 8.507812 -14.660156 7.75 -13.390625 C 7 -12.128906 6.316406 -10.804688 5.703125 -9.421875 C 5.085938 -8.035156 4.65625 -6.914062 4.40625 -6.0625 C 4.300781 -5.789062 4.203125 -5.503906 4.109375 -5.203125 C 3.972656 -4.816406 3.820312 -4.429688 3.65625 -4.046875 C 3.226562 -2.921875 2.472656 -2.484375 1.390625 -2.734375 C 0.796875 -2.867188 0.445312 -3.238281 0.34375 -3.84375 C 0.3125 -4.300781 0.296875 -4.742188 0.296875 -5.171875 C 0.296875 -5.429688 0.28125 -5.675781 0.25 -5.90625 C 0.1875 -9.226562 0.101562 -12.570312 0 -15.9375 C 0.03125 -16.332031 0.203125 -16.601562 0.515625 -16.75 C 0.828125 -16.894531 1.203125 -16.96875 1.640625 -16.96875 C 1.972656 -16.96875 2.285156 -16.878906 2.578125 -16.703125 C 2.867188 -16.523438 3.050781 -16.148438 3.125 -15.578125 C 3.15625 -15.390625 3.171875 -15.195312 3.171875 -15 C 3.191406 -14.894531 3.203125 -14.796875 3.203125 -14.703125 C 3.265625 -14.242188 3.296875 -13.847656 3.296875 -13.515625 C 3.296875 -13.023438 3.328125 -12.6875 3.390625 -12.5 C 3.460938 -12.320312 3.609375 -12.332031 3.828125 -12.53125 C 4.046875 -12.726562 4.398438 -13.191406 4.890625 -13.921875 C 5.742188 -15.234375 6.800781 -16.347656 8.0625 -17.265625 C 9.21875 -18.085938 10.484375 -18.429688 11.859375 -18.296875 C 13.035156 -18.179688 13.828125 -17.5625 14.234375 -16.4375 C 14.398438 -15.863281 14.484375 -15.289062 14.484375 -14.71875 C 14.484375 -14.144531 14.445312 -13.566406 14.375 -12.984375 C 14.34375 -12.378906 14.296875 -11.765625 14.234375 -11.140625 C 14.191406 -10.941406 14.15625 -10.742188 14.125 -10.546875 C 13.925781 -8.410156 13.988281 -6.976562 14.3125 -6.25 C 14.644531 -5.53125 15.148438 -5.289062 15.828125 -5.53125 C 16.503906 -5.78125 17.414062 -6.816406 18.5625 -8.640625 Z M 18.5625 -8.640625 "/></g></g></g><g fill="#ffffff" fill-opacity="1"><g transform="translate(228.530549, 111.647881)"><g><path d="M 24.40625 -11.34375 C 24.707031 -11.414062 24.960938 -11.441406 25.171875 -11.421875 C 25.378906 -11.398438 25.492188 -11.320312 25.515625 -11.1875 C 25.535156 -11.0625 25.347656 -10.863281 24.953125 -10.59375 C 24.785156 -10.507812 24.585938 -10.382812 24.359375 -10.21875 C 23.566406 -9.644531 22.644531 -9.015625 21.59375 -8.328125 C 20.476562 -7.566406 19.457031 -6.867188 18.53125 -6.234375 C 17.613281 -5.597656 17.003906 -5.113281 16.703125 -4.78125 C 16.378906 -4.320312 16.175781 -3.816406 16.09375 -3.265625 C 16.007812 -2.722656 15.953125 -2.132812 15.921875 -1.5 C 15.878906 -1.007812 15.828125 -0.515625 15.765625 -0.015625 C 14.910156 5.273438 13.46875 9.796875 11.4375 13.546875 C 9.40625 17.296875 7.117188 20.28125 4.578125 22.5 C 2.046875 24.726562 -0.425781 26.179688 -2.84375 26.859375 C -5.257812 27.546875 -7.296875 27.457031 -8.953125 26.59375 C -10.617188 25.738281 -11.601562 24.113281 -11.90625 21.71875 C -12.0625 19.769531 -11.660156 17.78125 -10.703125 15.75 C -9.742188 13.71875 -8.46875 11.773438 -6.875 9.921875 C -5.28125 8.066406 -3.59375 6.363281 -1.8125 4.8125 C -0.03125 3.269531 1.613281 1.988281 3.125 0.96875 C 3.539062 0.664062 3.984375 0.363281 4.453125 0.0625 C 6.585938 -1.414062 8.765625 -2.84375 10.984375 -4.21875 C 12.390625 -5.007812 13.046875 -6.160156 12.953125 -7.671875 C 12.953125 -7.835938 12.953125 -8.070312 12.953125 -8.375 C 12.910156 -8.8125 12.890625 -9.273438 12.890625 -9.765625 C 12.035156 -8.421875 10.832031 -7.203125 9.28125 -6.109375 C 7.726562 -5.015625 6.140625 -4.226562 4.515625 -3.75 C 2.898438 -3.28125 1.515625 -3.304688 0.359375 -3.828125 C -0.796875 -4.359375 -1.394531 -5.582031 -1.4375 -7.5 C -1.394531 -8.488281 -1.109375 -9.394531 -0.578125 -10.21875 C 0.660156 -12.414062 2.390625 -14.144531 4.609375 -15.40625 C 5.429688 -15.851562 6.425781 -16.175781 7.59375 -16.375 C 8.757812 -16.582031 9.882812 -16.566406 10.96875 -16.328125 C 12.050781 -16.097656 12.921875 -15.570312 13.578125 -14.75 C 13.742188 -15.019531 13.984375 -15.195312 14.296875 -15.28125 C 14.617188 -15.363281 14.910156 -15.40625 15.171875 -15.40625 C 15.234375 -15.40625 15.28125 -15.40625 15.3125 -15.40625 C 16.539062 -15.519531 17.117188 -14.957031 17.046875 -13.71875 C 17.015625 -12.820312 16.984375 -11.929688 16.953125 -11.046875 C 16.921875 -10.390625 16.882812 -9.742188 16.84375 -9.109375 C 16.882812 -8.367188 17.296875 -8.128906 18.078125 -8.390625 C 18.867188 -8.648438 19.828125 -9.09375 20.953125 -9.71875 C 22.234375 -10.46875 23.382812 -11.007812 24.40625 -11.34375 Z M 9.984375 -10.109375 C 11.367188 -11.492188 12.128906 -12.5625 12.265625 -13.3125 C 11.929688 -13.914062 11.414062 -14.28125 10.71875 -14.40625 C 10.019531 -14.53125 9.3125 -14.519531 8.59375 -14.375 C 7.875 -14.238281 7.269531 -14.019531 6.78125 -13.71875 C 5.414062 -12.863281 4.414062 -11.828125 3.78125 -10.609375 C 3.144531 -9.390625 2.910156 -8.347656 3.078125 -7.484375 C 3.242188 -6.628906 3.882812 -6.332031 5 -6.59375 C 6.113281 -6.863281 7.773438 -8.035156 9.984375 -10.109375 Z M 11.859375 -0.265625 C 11.859375 -0.316406 11.875 -0.351562 11.90625 -0.375 C 11.945312 -0.570312 11.984375 -0.820312 12.015625 -1.125 C 12.046875 -1.425781 12.035156 -1.671875 11.984375 -1.859375 C 11.929688 -2.054688 11.804688 -2.085938 11.609375 -1.953125 C 10.234375 -0.992188 8.789062 0.0625 7.28125 1.21875 C 6.375 1.875 5.523438 2.476562 4.734375 3.03125 C 3.628906 3.851562 2.332031 4.921875 0.84375 6.234375 C -0.632812 7.554688 -2.082031 9.03125 -3.5 10.65625 C -4.925781 12.289062 -6.097656 13.960938 -7.015625 15.671875 C -7.929688 17.390625 -8.390625 19.035156 -8.390625 20.609375 C -8.285156 22.859375 -7.65625 24.207031 -6.5 24.65625 C -5.351562 25.113281 -3.90625 24.832031 -2.15625 23.8125 C -0.414062 22.800781 1.390625 21.15625 3.265625 18.875 C 5.140625 16.601562 6.851562 13.835938 8.40625 10.578125 C 9.957031 7.328125 11.109375 3.710938 11.859375 -0.265625 Z M 11.859375 -0.265625 "/></g></g></g><g clip-path="url(#82e2f64ec4)"><g clip-path="url(#4de45a088b)"><g clip-path="url(#d3e8e69467)"><path fill="#ffffff" d="M 109.621094 24.136719 C 109.601562 24.152344 109.578125 24.148438 109.5625 24.128906 C 108.523438 22.800781 107.132812 21.742188 105.511719 21.242188 C 102.152344 20.214844 98.234375 22.113281 97.238281 25.589844 C 97.230469 25.613281 97.214844 25.625 97.191406 25.628906 C 96.898438 25.636719 96.613281 25.644531 96.324219 25.652344 C 93.527344 25.734375 90.542969 27.117188 89.238281 29.683594 C 87.972656 32.164062 88.566406 34.953125 90.8125 36.671875 C 90.835938 36.6875 90.832031 36.699219 90.804688 36.710938 C 88.011719 37.859375 87.8125 40.5 89.796875 42.574219 C 89.816406 42.589844 89.816406 42.613281 89.800781 42.628906 C 87.523438 46.132812 88.941406 51.175781 93.210938 52.230469 C 95.441406 52.785156 97.492188 51.933594 99.003906 50.261719 C 99.007812 50.257812 99.011719 50.257812 99.011719 50.253906 C 99.027344 50.25 99.039062 50.257812 99.046875 50.269531 C 100.082031 53.105469 100.9375 55.980469 101.519531 58.953125 C 101.523438 58.984375 101.535156 58.984375 101.554688 58.960938 C 102.390625 57.878906 103.195312 56.945312 103.964844 56.15625 C 108.453125 51.574219 113.683594 48.003906 119.660156 45.449219 C 121.855469 44.511719 124.035156 43.800781 126.195312 43.320312 C 126.222656 43.316406 126.222656 43.304688 126.203125 43.289062 C 123.691406 41.429688 121.503906 39.441406 119.289062 37.214844 C 119.269531 37.191406 119.269531 37.179688 119.296875 37.167969 C 119.691406 36.992188 120.074219 36.792969 120.445312 36.570312 C 123.847656 34.535156 124.582031 30.296875 122.691406 26.988281 C 120.027344 22.335938 113.984375 20.621094 109.621094 24.136719 Z M 121.269531 27.78125 C 122.539062 29.9375 122.53125 32.820312 120.90625 34.820312 C 119.121094 37.023438 116.457031 37.234375 114.011719 38.160156 C 109.367188 39.910156 105.292969 42.542969 101.796875 46.0625 C 100.957031 46.910156 100.207031 47.796875 99.40625 48.761719 C 98.800781 49.488281 98.007812 50.183594 97.125 50.59375 C 94.863281 51.652344 92.210938 50.84375 90.914062 48.710938 C 89.875 46.996094 89.949219 45.15625 90.527344 43.292969 C 90.535156 43.265625 90.550781 43.261719 90.574219 43.277344 C 92.914062 44.996094 96.0625 45.570312 98.816406 44.554688 C 98.824219 44.554688 98.828125 44.546875 98.828125 44.539062 C 98.824219 44.535156 98.820312 44.527344 98.8125 44.53125 C 96.914062 44.605469 94.859375 44.308594 93.15625 43.429688 C 91.710938 42.683594 90.261719 41.324219 90.59375 39.574219 C 90.789062 38.542969 91.363281 38.0625 92.167969 37.480469 C 92.1875 37.46875 92.210938 37.464844 92.230469 37.472656 C 94.769531 38.3125 97.320312 37.75 99.324219 35.953125 C 99.429688 35.859375 99.417969 35.832031 99.28125 35.875 C 97.738281 36.371094 96.03125 36.628906 94.421875 36.449219 C 92.394531 36.226562 90.109375 34.980469 90.128906 32.632812 C 90.136719 31.726562 90.394531 30.90625 90.910156 30.167969 C 92.4375 27.957031 95.476562 27.199219 98.011719 27.414062 C 101.230469 27.6875 104.128906 29.199219 106.507812 31.355469 C 106.515625 31.363281 106.53125 31.363281 106.539062 31.355469 C 106.554688 31.347656 106.558594 31.332031 106.550781 31.316406 C 104.835938 28.375 101.914062 26.277344 98.515625 25.75 C 98.511719 25.75 98.507812 25.746094 98.503906 25.746094 C 98.488281 25.734375 98.480469 25.714844 98.488281 25.699219 C 99.566406 23.824219 101.609375 22.828125 103.746094 22.980469 C 108.019531 23.292969 110.875 27.296875 112.148438 30.96875 C 112.148438 30.980469 112.160156 30.984375 112.164062 30.980469 C 112.175781 30.984375 112.183594 30.972656 112.183594 30.964844 C 112.023438 28.71875 111.3125 26.65625 110.058594 24.777344 C 110.046875 24.761719 110.046875 24.746094 110.066406 24.734375 C 113.992188 22.210938 119.023438 23.96875 121.269531 27.78125 Z M 121.269531 27.78125 " fill-opacity="1" fill-rule="nonzero"/></g></g></g><g fill="#ffffff" fill-opacity="0.4"><g transform="translate(151.423437, 133.052944)"><g><path d="M 10.1875 0 L 8.671875 0 L 6.59375 -6.84375 L 4.484375 0 L 2.953125 0 L 0.03125 -8.78125 L 1.625 -8.78125 L 3.765625 -1.640625 L 5.890625 -8.765625 L 7.34375 -8.78125 L 9.46875 -1.640625 L 11.59375 -8.78125 L 13.125 -8.78125 Z M 10.1875 0 "/></g></g></g><g fill="#ffffff" fill-opacity="0.4"><g transform="translate(166.261175, 133.052944)"><g><path d="M 6.828125 -1.984375 L 2.390625 -1.984375 L 1.5625 0 L 0.015625 0 L 3.890625 -8.78125 L 5.40625 -8.78125 L 9.25 0 L 7.671875 0 Z M 6.265625 -3.296875 L 4.609375 -7.203125 L 2.953125 -3.296875 Z M 6.265625 -3.296875 "/></g></g></g><g fill="#ffffff" fill-opacity="0.4"><g transform="translate(177.361284, 133.052944)"><g><path d="M 7.15625 -7.453125 L 4.359375 -7.453125 L 4.359375 0 L 2.890625 0 L 2.890625 -7.453125 L 0.109375 -7.453125 L 0.109375 -8.78125 L 7.15625 -8.78125 Z M 7.15625 -7.453125 "/></g></g></g><g fill="#ffffff" fill-opacity="0.4"><g transform="translate(186.467151, 133.052944)"><g><path d="M 6.828125 -1.984375 L 2.390625 -1.984375 L 1.5625 0 L 0.015625 0 L 3.890625 -8.78125 L 5.40625 -8.78125 L 9.25 0 L 7.671875 0 Z M 6.265625 -3.296875 L 4.609375 -7.203125 L 2.953125 -3.296875 Z M 6.265625 -3.296875 "/></g></g></g><g fill="#ffffff" fill-opacity="1"><g transform="translate(150.869112, 132.498618)"><g><path d="M 10.1875 0 L 8.671875 0 L 6.59375 -6.84375 L 4.484375 0 L 2.953125 0 L 0.03125 -8.78125 L 1.625 -8.78125 L 3.765625 -1.640625 L 5.890625 -8.765625 L 7.34375 -8.78125 L 9.46875 -1.640625 L 11.59375 -8.78125 L 13.125 -8.78125 Z M 10.1875 0 "/></g></g></g><g fill="#ffffff" fill-opacity="1"><g transform="translate(165.70685, 132.498618)"><g><path d="M 6.828125 -1.984375 L 2.390625 -1.984375 L 1.5625 0 L 0.015625 0 L 3.890625 -8.78125 L 5.40625 -8.78125 L 9.25 0 L 7.671875 0 Z M 6.265625 -3.296875 L 4.609375 -7.203125 L 2.953125 -3.296875 Z M 6.265625 -3.296875 "/></g></g></g><g fill="#ffffff" fill-opacity="1"><g transform="translate(176.806959, 132.498618)"><g><path d="M 7.15625 -7.453125 L 4.359375 -7.453125 L 4.359375 0 L 2.890625 0 L 2.890625 -7.453125 L 0.109375 -7.453125 L 0.109375 -8.78125 L 7.15625 -8.78125 Z M 7.15625 -7.453125 "/></g></g></g><g fill="#ffffff" fill-opacity="1"><g transform="translate(185.912825, 132.498618)"><g><path d="M 6.828125 -1.984375 L 2.390625 -1.984375 L 1.5625 0 L 0.015625 0 L 3.890625 -8.78125 L 5.40625 -8.78125 L 9.25 0 L 7.671875 0 Z M 6.265625 -3.296875 L 4.609375 -7.203125 L 2.953125 -3.296875 Z M 6.265625 -3.296875 "/></g></g></g></svg>