<svg width="351" height="298" viewBox="0 0 351 298" fill="none" xmlns="http://www.w3.org/2000/svg">
<path d="M180.312 219.027C211.062 239.532 238.068 254.855 264.922 267.006L328.187 159.876C336.135 146.407 346.042 129.652 345.021 112.292C344.125 96.9121 333.927 82.2402 319.656 75.7975C305.526 69.4017 288.01 71.0996 275.052 80.1257C263.042 88.4954 255.943 101.443 248.432 115.152C244.687 122.006 240.802 129.084 236.255 135.537C235.609 136.459 234.51 136.933 233.385 136.751C232.281 136.568 231.375 135.777 231.047 134.693C229.552 129.782 229.01 125.407 228.479 121.188C228.323 119.876 228.156 118.594 227.974 117.308C227.349 113.053 226.239 107.641 223.203 103.527C220.854 100.334 216.521 97.4746 212.161 98.2507C208.859 98.8496 205.781 101.537 203.917 105.433C202.12 109.193 201.536 113.605 201.047 118.173C198.719 140.006 198.25 162.381 197.792 184.032C197.786 184.527 197.646 185.011 197.401 185.443C190.917 196.521 185.177 207.803 180.312 219.027ZM266.109 273.688C265.708 273.688 265.307 273.605 264.922 273.433C236.38 260.714 207.818 244.548 175.021 222.548C173.849 221.761 173.401 220.256 173.948 218.964C179.021 206.995 185.073 194.954 191.943 183.141C192.391 161.62 192.885 139.37 195.219 117.548C195.755 112.449 196.427 107.495 198.62 102.902C201.297 97.3079 205.963 93.4121 211.12 92.485C217.135 91.3861 223.745 94.3548 227.937 100.042C231.739 105.204 233.052 111.532 233.776 116.454C233.969 117.787 234.135 119.115 234.307 120.454C234.547 122.443 234.802 124.469 235.161 126.542C238.031 121.923 240.693 117.068 243.286 112.339C250.786 98.6361 258.547 84.4694 271.698 75.3079C286.323 65.1204 306.094 63.2246 322.078 70.4486C338.281 77.7767 349.854 94.459 350.88 111.943C352 131.094 341.599 148.709 333.239 162.865L268.641 272.251C268.094 273.167 267.12 273.688 266.109 273.688Z" fill="#74472C"/>
<path d="M279.583 249.517C279.005 249.517 278.448 249.199 278.172 248.636C276.052 244.298 273.99 239.933 271.943 235.558C267.302 225.564 262.911 215.642 258.896 206.048C254.74 196.136 250.823 186.298 247.266 176.824C243.646 167.241 240.203 157.569 237.031 148.084C235.521 143.636 234.062 139.163 232.641 134.678C232.375 133.86 232.833 132.98 233.651 132.715C234.484 132.449 235.354 132.907 235.62 133.735C237.042 138.199 238.49 142.647 239.995 147.084C243.156 156.538 246.588 166.168 250.193 175.725C253.74 185.163 257.641 194.965 261.781 204.84C265.792 214.397 270.156 224.282 274.786 234.241C276.812 238.595 278.875 242.944 280.984 247.272C281.359 248.043 281.042 248.975 280.26 249.36C280.042 249.47 279.812 249.517 279.583 249.517Z" fill="#74472C"/>
<path d="M301.74 212.001C301.115 212.001 300.526 211.626 300.281 211.001C297.687 204.344 295.062 197.725 292.365 191.094C288.531 181.527 284.5 171.745 280.042 161.173C276.042 151.678 272.036 142.355 268.109 133.438C263.167 122.199 258.474 111.772 253.776 101.589C253.521 101.006 253.266 100.454 253.005 99.9017L252.896 99.6569C252.531 98.8757 252.88 97.9486 253.667 97.584C254.448 97.2194 255.38 97.5632 255.74 98.3548L255.849 98.5944C256.115 99.1621 256.38 99.7298 256.63 100.298C261.323 110.475 266.021 120.912 270.979 132.183C274.906 141.105 278.922 150.449 282.932 159.949C287.396 170.542 291.432 180.344 295.271 189.917C297.969 196.558 300.599 203.199 303.198 209.876C303.51 210.673 303.115 211.579 302.307 211.902C302.125 211.964 301.932 212.001 301.74 212.001Z" fill="#74472C"/>
<path d="M323.016 175.98C322.406 175.98 321.828 175.621 321.573 175.037L297.328 119.537C294.578 113.209 291.818 106.892 289.057 100.563L277.833 74.876C277.484 74.0791 277.849 73.1624 278.641 72.8135C279.427 72.4645 280.354 72.8239 280.693 73.6208L291.927 99.3187C294.687 105.636 297.448 111.965 300.198 118.293L324.443 173.787C324.792 174.579 324.427 175.496 323.635 175.845C323.427 175.933 323.224 175.98 323.016 175.98Z" fill="#74472C"/>
<path d="M342.682 140.199C342.052 140.199 341.453 139.813 341.224 139.188C340.573 137.532 339.943 135.85 339.281 134.199C335.521 124.537 331.542 114.777 327.469 105.178C323.297 95.3079 318.797 85.1204 314.088 74.8861L312.432 71.2819C312.338 71.084 312.286 70.86 312.286 70.6309C312.286 69.7715 312.99 69.0527 313.854 69.0527C314.531 69.0527 315.12 69.4954 315.328 70.0996L316.943 73.584C321.656 83.8392 326.167 94.0632 330.349 103.959C334.437 113.579 338.422 123.37 342.198 133.053C342.859 134.714 343.5 136.391 344.141 138.068C344.453 138.876 344.052 139.787 343.245 140.089C343.057 140.162 342.865 140.199 342.682 140.199Z" fill="#74472C"/>
<path d="M244.625 262.074C243.984 262.074 243.38 261.668 243.151 261.027C241.729 256.975 240.286 252.918 238.838 248.876C235.078 238.392 231.63 228.959 228.292 220.017C224.661 210.267 221.047 200.715 217.536 191.605C213.547 181.256 209.854 171.845 206.239 162.829C202.333 153.048 198.719 144.152 195.198 135.631C194.87 134.834 195.245 133.918 196.052 133.584C196.838 133.256 197.755 133.631 198.094 134.439C201.614 142.97 205.229 151.871 209.146 161.668C212.76 170.689 216.463 180.116 220.453 190.491C223.963 199.595 227.599 209.168 231.229 218.923C234.568 227.876 238.021 237.329 241.781 247.814C243.239 251.876 244.682 255.928 246.109 259.991C246.396 260.808 245.963 261.694 245.151 261.98C244.974 262.043 244.802 262.074 244.625 262.074Z" fill="#74472C"/>
<path d="M204.229 239.392C203.614 239.392 203.031 239.027 202.792 238.412C202.068 236.642 201.359 234.871 200.656 233.084C197.005 224.022 193.375 214.965 189.75 205.886L186.323 197.313C186.25 197.126 186.213 196.928 186.213 196.725C186.213 195.86 186.906 195.157 187.771 195.157C188.474 195.157 189.083 195.626 189.276 196.267L192.651 204.72C196.281 213.798 199.911 222.86 203.562 231.918C204.266 233.709 204.963 235.47 205.677 237.241C206.01 238.037 205.625 238.954 204.828 239.272C204.635 239.355 204.432 239.392 204.229 239.392Z" fill="#74472C"/>
<path d="M197.333 127.662C196.739 127.662 196.177 127.324 195.911 126.746C195.547 125.965 195.896 125.032 196.682 124.673L229.13 109.855C229.917 109.496 230.833 109.834 231.198 110.626C231.557 111.412 231.208 112.34 230.432 112.699L197.984 127.517C197.776 127.616 197.552 127.662 197.333 127.662Z" fill="#74472C"/>
<path d="M252.391 103.73C251.531 103.73 250.823 103.032 250.823 102.168C250.823 101.48 251.266 100.897 251.88 100.683L315.51 72.5217C316.615 72.0373 317.714 71.5477 318.823 71.0738C319.609 70.7352 320.536 71.0998 320.875 71.8863C321.214 72.6883 320.849 73.6102 320.062 73.9435C318.958 74.4175 317.87 74.8967 316.776 75.381L253.016 103.6C252.812 103.694 252.604 103.73 252.391 103.73Z" fill="#74472C"/>
<path d="M195.219 169.746C194.641 169.746 194.068 169.412 193.802 168.845C193.437 168.069 193.766 167.131 194.547 166.766L207.026 160.839C215.062 156.996 223.12 153.167 231.172 149.339L328.229 103.152C333.385 100.709 338.521 98.2717 343.667 95.8133C344.443 95.4383 345.38 95.7664 345.755 96.5477C346.125 97.3289 345.792 98.2612 345.01 98.6362C339.87 101.095 334.734 103.537 329.578 105.975L232.51 152.167C224.458 156.001 216.406 159.824 208.364 163.667L195.896 169.6C195.677 169.699 195.448 169.746 195.219 169.746Z" fill="#74472C"/>
<path d="M180.807 212.334C180.25 212.334 179.698 212.027 179.427 211.495C179.021 210.735 179.312 209.792 180.078 209.386C183.531 207.553 187 205.74 190.474 203.923C199.922 199.006 209.276 194.204 218.286 189.652C228.677 184.396 238.417 179.558 248.047 174.86C259.021 169.495 270.047 164.204 280.823 159.141C291.594 154.074 301.25 149.615 310.359 145.501C319.042 141.527 328.505 137.292 340.115 132.193L341.5 131.579C342.547 131.12 343.594 130.662 344.635 130.209C345.427 129.881 346.354 130.24 346.693 131.037C347.031 131.834 346.656 132.751 345.865 133.089C344.828 133.532 343.792 133.99 342.766 134.449L341.37 135.063C329.781 140.152 320.333 144.381 311.661 148.35C302.562 152.459 292.906 156.917 282.151 161.98C271.396 167.032 260.38 172.313 249.422 177.678C239.802 182.365 230.083 187.193 219.703 192.443C210.698 196.99 201.349 201.787 191.922 206.693C188.448 208.506 184.99 210.324 181.542 212.146C181.307 212.277 181.057 212.334 180.807 212.334Z" fill="#74472C"/>
<path d="M198.443 235.824C197.875 235.824 197.318 235.506 197.042 234.954C196.667 234.183 196.979 233.251 197.745 232.855C198.984 232.24 200.213 231.652 201.453 231.084C211 226.527 220.307 222.136 229.099 218.043C239.823 213.048 249.833 208.464 259.703 204.017C270.542 199.079 281.812 194.053 293.193 189.069C302.323 185.022 311.25 181.152 319.703 177.537C320.5 177.209 321.417 177.574 321.755 178.365C322.094 179.162 321.729 180.079 320.932 180.418C312.484 184.022 303.573 187.892 294.458 191.928C283.078 196.907 271.823 201.944 260.995 206.865C251.135 211.313 241.141 215.897 230.422 220.886C221.635 224.97 212.338 229.35 202.781 233.918C201.552 234.485 200.354 235.058 199.151 235.662C198.922 235.772 198.682 235.824 198.443 235.824Z" fill="#74472C"/>
<path d="M229.745 254.214C229.13 254.214 228.542 253.844 228.292 253.23C227.974 252.433 228.359 251.527 229.156 251.193C232.677 249.771 236.198 248.334 239.719 246.896C250.745 242.417 261.755 237.943 272.771 233.449C278.875 230.975 284.995 228.49 291.099 226.006C291.906 225.672 292.818 226.058 293.135 226.855C293.469 227.662 293.083 228.574 292.281 228.902C286.177 231.386 280.057 233.881 273.953 236.35C262.937 240.844 251.917 245.318 240.901 249.792C237.38 251.23 233.859 252.672 230.328 254.1C230.135 254.178 229.943 254.214 229.745 254.214Z" fill="#74472C"/>
<mask id="mask0_5557_12530" style="mask-type:luminance" maskUnits="userSpaceOnUse" x="240" y="258" width="25" height="40">
<path d="M240.943 258.396H264.943V297.74H240.943V258.396Z" fill="white"/>
</mask>
<g mask="url(#mask0_5557_12530)">
<path d="M255.557 297.605C254.198 297.605 252.776 297.324 251.364 296.745C246.682 294.839 243.114 290.313 241.828 284.657C240.635 279.438 241.479 274.251 242.359 270.308C242.698 268.766 243.094 267.245 243.479 265.714C243.864 264.235 244.229 262.761 244.573 261.272C244.917 259.688 246.479 258.699 248.073 259.053C249.651 259.402 250.651 260.969 250.292 262.558C249.953 264.089 249.557 265.631 249.172 267.162C248.797 268.626 248.411 270.105 248.094 271.579C246.984 276.542 246.818 280.173 247.552 283.355C248.406 287.094 250.703 290.141 253.578 291.313C254.88 291.839 256.161 291.865 256.932 291.386C258.38 290.501 258.656 287.73 258.739 285.719C258.995 279.891 258.766 273.917 258.521 268.777C258.453 267.162 259.703 265.787 261.318 265.714C262.937 265.61 264.312 266.897 264.385 268.511C264.635 273.772 264.864 279.897 264.609 285.969C264.516 288.094 264.286 293.756 260.021 296.386C258.713 297.193 257.182 297.605 255.557 297.605Z" fill="#74472C"/>
</g>
<path d="M49.5103 5.85494C43.2395 5.85494 36.9999 7.12057 31.3072 9.69348C17.0364 16.1414 6.83847 30.8133 5.94263 46.1935C4.9218 63.5424 14.828 80.3081 22.776 93.7768L86.0416 200.897C112.896 188.756 139.901 173.433 170.651 152.928C165.786 141.693 160.047 130.412 153.562 119.345C153.318 118.912 153.177 118.428 153.172 117.923C152.713 96.2924 152.245 73.907 149.917 52.0737C149.427 47.506 148.844 43.0841 147.047 39.3237C145.182 35.4383 142.104 32.7508 138.802 32.1518C134.417 31.3654 130.099 34.2247 127.75 37.4279C124.724 41.5424 123.615 46.9539 122.99 51.2091C122.807 52.4956 122.641 53.7768 122.479 55.0789C121.953 59.3081 121.411 63.6727 119.917 68.5945C119.588 69.6779 118.682 70.4695 117.578 70.6518C116.463 70.8341 115.359 70.3549 114.708 69.4383C110.161 62.9852 106.281 55.907 102.521 49.0529C95.0208 35.3445 87.9322 22.3966 75.9114 14.0216C68.1718 8.63098 58.7968 5.85494 49.5103 5.85494ZM84.8541 207.579C83.8437 207.579 82.8697 207.058 82.3281 206.141L17.7239 96.7664C9.36451 82.6101 -1.03653 64.9904 0.083258 45.8445C1.1093 28.3497 12.6822 11.6779 28.8853 4.34974C44.8697 -2.88464 64.6406 -0.97839 79.2656 9.19869C92.4166 18.3706 100.177 32.532 107.677 46.2299C110.271 50.9695 112.922 55.8237 115.802 60.4435C116.161 58.3602 116.417 56.3445 116.661 54.3549C116.828 53.006 116.995 51.6883 117.187 50.3549C117.911 45.4331 119.224 39.1049 123.026 33.9435C127.219 28.2456 133.823 25.2924 139.844 26.3758C145 27.3133 149.677 31.2091 152.344 36.7924C154.536 41.3966 155.208 46.3497 155.745 51.4487C158.083 73.2716 158.573 95.5216 159.021 117.042C165.891 128.855 171.943 140.897 177.016 152.86C177.562 154.157 177.115 155.657 175.943 156.449C143.146 178.449 114.583 194.615 86.0416 207.334C85.6562 207.506 85.2551 207.579 84.8541 207.579Z" fill="#74472C"/>
<path d="M71.3801 183.417C71.151 183.417 70.9218 183.36 70.7031 183.261C69.9218 182.876 69.6041 181.943 69.9791 181.162C72.0885 176.844 74.151 172.495 76.177 168.141C80.8072 158.183 85.1718 148.287 89.1718 138.74C93.3228 128.855 97.2239 119.058 100.76 109.615C104.375 100.079 107.807 90.4381 110.969 80.985C112.474 76.5475 113.922 72.0892 115.344 67.6256C115.609 66.8079 116.479 66.3392 117.307 66.6048C118.13 66.8704 118.588 67.7506 118.323 68.5787C116.891 73.0631 115.443 77.5267 113.932 81.985C110.76 91.4746 107.307 101.141 103.698 110.725C100.141 120.199 96.2239 130.027 92.0572 139.949C88.052 149.532 83.6614 159.464 79.0208 169.459C76.9739 173.834 74.9114 178.199 72.7916 182.537C72.5156 183.094 71.9687 183.417 71.3801 183.417Z" fill="#74472C"/>
<path d="M49.2239 145.902C49.0312 145.902 48.8385 145.866 48.6562 145.793C47.8489 145.48 47.4531 144.574 47.7656 143.767C50.3697 137.1 53.0051 130.449 55.6926 123.814C59.526 114.267 63.5676 104.459 68.0312 93.85C72.052 84.3239 76.0676 74.9906 79.9843 66.0843C84.9322 54.8135 89.6406 44.376 94.3541 34.1729C94.5833 33.6312 94.8489 33.0635 95.1145 32.4854L95.2239 32.2458C95.5885 31.4646 96.5051 31.1156 97.3072 31.4854C98.0833 31.8448 98.4218 32.7666 98.0676 33.5583L97.9583 33.8031C97.6978 34.3552 97.4426 34.9073 97.2031 35.4646C92.4895 45.6729 87.7968 56.1 82.8541 67.3396C78.9478 76.2354 74.927 85.5635 70.9218 95.0635C66.4583 105.652 62.4322 115.439 58.5989 124.975C55.9114 131.616 53.276 138.246 50.6822 144.902C50.4374 145.527 49.8489 145.902 49.2239 145.902Z" fill="#74472C"/>
<path d="M27.9479 109.871C27.7499 109.871 27.526 109.834 27.3281 109.746C26.5364 109.397 26.1718 108.48 26.5208 107.678L50.7656 52.1833C53.6093 45.6416 56.4583 39.1052 59.3229 32.5739L70.2604 7.51141C70.6093 6.72495 71.5364 6.36558 72.3229 6.71454C73.1249 7.05308 73.4791 7.98016 73.1301 8.77183L62.1822 33.8343C59.3385 40.3604 56.4791 46.902 53.6354 53.4385L29.3906 108.938C29.1354 109.522 28.5572 109.871 27.9479 109.871Z" fill="#74472C"/>
<path d="M9.82285 72.8864L8.28118 72.5322L6.82285 71.9697C7.52076 70.1572 8.13534 68.5426 8.76555 66.9437C12.5416 57.2718 16.526 47.4801 20.6145 37.8499C24.7968 27.9645 29.3072 17.7458 34.0312 7.47494L35.6718 3.91764C35.901 3.36035 36.4583 2.9541 37.1093 2.9541C37.9739 2.9541 38.677 3.65202 38.677 4.5166V4.53223C38.677 4.75098 38.6353 4.97494 38.5312 5.17285L36.8749 8.77702C32.1666 19.0218 27.6666 29.2197 23.4947 39.0687C19.4218 48.6781 15.4531 58.4385 11.6822 68.0947C11.0468 69.6885 10.4374 71.2822 9.82285 72.8864Z" fill="#74472C"/>
<path d="M106.328 195.97C106.161 195.97 105.99 195.944 105.812 195.881C105 195.595 104.568 194.699 104.854 193.892C106.281 189.829 107.724 185.767 109.182 181.715C112.943 171.22 116.396 161.777 119.734 152.824C123.365 143.058 126.99 133.496 130.51 124.381C134.479 114.079 138.177 104.652 141.818 95.5687C145.708 85.8344 149.318 76.9333 152.87 68.3291C153.208 67.5323 154.125 67.1573 154.911 67.4854C155.719 67.8187 156.094 68.7354 155.766 69.5323C152.219 78.1156 148.604 87.0114 144.724 96.7302C141.083 105.803 137.396 115.22 133.427 125.506C129.917 134.616 126.292 144.168 122.672 153.907C119.333 162.86 115.885 172.293 112.125 182.767C110.677 186.819 109.234 190.871 107.807 194.928C107.583 195.569 106.979 195.97 106.328 195.97Z" fill="#74472C"/>
<path d="M146.734 173.292C146.531 173.292 146.328 173.256 146.135 173.173C145.338 172.845 144.953 171.938 145.286 171.136C146 169.371 146.698 167.61 147.401 165.829C151.052 156.761 154.682 147.699 158.307 138.621L161.719 130.095C161.937 129.485 162.516 129.058 163.193 129.058C164.057 129.058 164.75 129.746 164.75 130.615V130.626C164.75 130.824 164.713 131.016 164.641 131.209L161.213 139.787C157.588 148.865 153.958 157.923 150.307 166.985C149.604 168.772 148.896 170.542 148.172 172.313C147.932 172.928 147.349 173.292 146.734 173.292Z" fill="#74472C"/>
<path d="M153.63 61.5635C153.411 61.5635 153.187 61.5166 152.979 61.4176L120.531 46.5947C119.755 46.2405 119.406 45.3031 119.766 44.527C120.12 43.7353 121.047 43.3864 121.833 43.7562L154.281 58.5739C155.068 58.9333 155.417 59.8551 155.052 60.6468C154.786 61.2249 154.224 61.5635 153.63 61.5635Z" fill="#74472C"/>
<path d="M155.745 103.646C155.516 103.646 155.286 103.6 155.068 103.501L142.599 97.5632C134.557 93.7246 126.505 89.8913 118.453 86.0684L21.3749 39.8757C16.2291 37.4382 11.0937 34.985 5.95305 32.5319C5.1718 32.1621 4.83847 31.2298 5.20826 30.4486C5.58326 29.6673 6.52076 29.3392 7.2968 29.7038C12.4426 32.1621 17.5781 34.5996 22.7239 37.0423L119.792 83.2402C127.844 87.0632 135.901 90.8965 143.943 94.7402L156.417 100.667C157.198 101.032 157.526 101.969 157.161 102.745C156.896 103.313 156.323 103.646 155.745 103.646Z" fill="#74472C"/>
<path d="M170.156 146.23C169.906 146.23 169.656 146.168 169.422 146.048C165.974 144.215 162.516 142.407 159.042 140.595C149.615 135.688 140.266 130.892 131.26 126.34C121.068 121.188 111.062 116.22 101.552 111.579C90.5833 106.215 79.5676 100.933 68.8124 95.8708C58.0312 90.8083 48.3801 86.3499 39.3124 82.251C30.4635 78.1989 21.0155 73.9801 9.59367 68.9541L8.19784 68.3499C7.1718 67.8916 6.13534 67.4333 5.09888 66.9906C4.30201 66.652 3.93222 65.7354 4.27076 64.9385C4.61971 64.1416 5.5468 63.7718 6.32805 64.1104C7.36971 64.5635 8.41659 65.0218 9.46346 65.4801L10.8489 66.0947C22.2916 71.1208 31.7447 75.3447 40.6041 79.3968C49.6822 83.501 59.3489 87.9645 70.1406 93.0374C80.9166 98.0999 91.9426 103.386 102.917 108.761C112.453 113.412 122.458 118.381 132.677 123.543C141.687 128.105 151.042 132.897 160.49 137.813C163.963 139.631 167.432 141.444 170.885 143.277C171.651 143.683 171.943 144.626 171.536 145.397C171.266 145.928 170.713 146.23 170.156 146.23Z" fill="#74472C"/>
<path d="M152.521 169.72C152.281 169.72 152.042 169.673 151.812 169.563C150.609 168.954 149.411 168.381 148.198 167.829C138.802 163.334 129.5 158.954 120.542 154.787C109.687 149.725 99.6874 145.142 89.9791 140.767C79.1406 135.834 67.8853 130.808 56.5156 125.829C47.427 121.813 38.5156 117.944 30.0312 114.319C29.2343 113.98 28.8697 113.063 29.2083 112.267C29.5468 111.47 30.4739 111.11 31.2603 111.438C39.7603 115.063 48.6822 118.944 57.7708 122.97C69.151 127.949 80.4218 132.98 91.2708 137.912C100.99 142.298 110.995 146.881 121.865 151.944C130.833 156.116 140.141 160.501 149.531 164.996C150.75 165.553 151.979 166.142 153.219 166.756C153.984 167.142 154.297 168.084 153.922 168.855C153.646 169.407 153.088 169.72 152.521 169.72Z" fill="#74472C"/>
<path d="M121.219 188.116C121.021 188.116 120.828 188.074 120.635 188.001C117.104 186.574 113.583 185.131 110.062 183.694C99.0468 179.22 88.026 174.735 76.9999 170.251C70.9062 167.782 64.7864 165.288 58.6822 162.803C57.8801 162.475 57.4947 161.558 57.8281 160.756C58.1458 159.959 59.0572 159.574 59.8645 159.897C65.9635 162.392 72.0885 164.876 78.1874 167.35C89.2083 171.845 100.219 176.319 111.245 180.793C114.766 182.235 118.286 183.673 121.807 185.095C122.604 185.418 122.99 186.334 122.672 187.131C122.422 187.746 121.833 188.116 121.219 188.116Z" fill="#74472C"/>
<path d="M95.4062 231.506C93.7812 231.506 92.2499 231.094 90.9322 230.277C86.677 227.657 86.4478 221.995 86.3541 219.86C86.0885 213.798 86.3385 207.673 86.5781 202.407C86.651 200.787 88.0624 199.537 89.6406 199.61C91.2603 199.688 92.5103 201.063 92.4426 202.678C92.2083 207.818 91.9687 213.787 92.2239 219.615C92.3072 221.631 92.5833 224.402 94.0208 225.287C94.802 225.766 96.0833 225.74 97.3853 225.209C100.26 224.042 102.568 220.995 103.411 217.256C104.146 214.074 103.979 210.443 102.88 205.48C102.542 203.995 102.167 202.527 101.792 201.053C101.406 199.522 101.01 197.99 100.672 196.449C100.312 194.87 101.312 193.303 102.891 192.943C104.484 192.6 106.047 193.594 106.391 195.173C106.724 196.657 107.099 198.126 107.474 199.605C107.87 201.136 108.255 202.667 108.604 204.209C109.484 208.141 110.338 213.339 109.125 218.568C107.849 224.214 104.281 228.735 99.5989 230.647C98.1926 231.214 96.7656 231.506 95.4062 231.506Z" fill="#74472C"/>
</svg>
